<?xml version="1.0" encoding="UTF-8" standalone="no"?>
<svg
   viewBox="0 0 1000 666.66669"
   height="666.66669"
   width="1000"
   xml:space="preserve"
   id="svg2"
   version="1.1"
   sodipodi:docname="4661521_2481153.svg"
   inkscape:version="1.2.1 (9c6d41e410, 2022-07-14)"
   xmlns:inkscape="http://www.inkscape.org/namespaces/inkscape"
   xmlns:sodipodi="http://sodipodi.sourceforge.net/DTD/sodipodi-0.dtd"
   xmlns="http://www.w3.org/2000/svg"
   xmlns:svg="http://www.w3.org/2000/svg"
   xmlns:rdf="http://www.w3.org/1999/02/22-rdf-syntax-ns#"
   xmlns:cc="http://creativecommons.org/ns#"
   xmlns:dc="http://purl.org/dc/elements/1.1/"><sodipodi:namedview
     id="namedview145"
     pagecolor="#ffffff"
     bordercolor="#000000"
     borderopacity="0.25"
     inkscape:showpageshadow="2"
     inkscape:pageopacity="0.0"
     inkscape:pagecheckerboard="0"
     inkscape:deskcolor="#d1d1d1"
     showgrid="false"
     inkscape:zoom="0.61049998"
     inkscape:cx="284.19329"
     inkscape:cy="274.36528"
     inkscape:window-width="1920"
     inkscape:window-height="1001"
     inkscape:window-x="-9"
     inkscape:window-y="-9"
     inkscape:window-maximized="1"
     inkscape:current-layer="svg2" /><metadata
     id="metadata8"><rdf:RDF><cc:Work
         rdf:about=""><dc:format>image/svg+xml</dc:format><dc:type
           rdf:resource="http://purl.org/dc/dcmitype/StillImage" /></cc:Work></rdf:RDF></metadata><defs
     id="defs6" /><path
     id="path16"
     style="fill:#dbf2f5;fill-opacity:1;fill-rule:nonzero;stroke:none;stroke-width:0.133333"
     d="m 775.87331,402.42001 c 0,-158.35066 -128.36933,-286.71999 -286.71999,-286.71999 -158.35199,0 -286.72133,128.36933 -286.72133,286.71999 0,66.47866 22.632,127.66666 60.60134,176.2972 h 452.23865 c 37.96933,-48.63054 60.60133,-109.81854 60.60133,-176.2972" /><path
     id="path18"
     style="fill:#dbf2f5;fill-opacity:1;fill-rule:nonzero;stroke:none;stroke-width:0.133333"
     d="m 881.66664,463.07334 h -74.07333 c -2.70666,0 -4.89733,-2.19333 -4.89733,-4.89733 v 0 c 0,-2.70533 2.19067,-4.89867 4.89733,-4.89867 h 74.07333 c 2.70534,0 4.89734,2.19334 4.89734,4.89867 v 0 c 0,2.704 -2.192,4.89733 -4.89734,4.89733" /><path
     id="path20"
     style="fill:#dbf2f5;fill-opacity:1;fill-rule:nonzero;stroke:none;stroke-width:0.133333"
     d="M 168.97066,411.63334 H 87.637998 c -2.7052,0 -4.897333,-2.19333 -4.897333,-4.89866 v 0 c 0,-2.70534 2.192133,-4.89734 4.897333,-4.89734 h 81.332662 c 2.70534,0 4.89734,2.192 4.89734,4.89734 v 0 c 0,2.70533 -2.192,4.89866 -4.89734,4.89866" /><path
     id="path22"
     style="fill:#80cedf;fill-opacity:1;fill-rule:nonzero;stroke:none;stroke-width:0.133333"
     d="m 897.51864,523.02801 h -7.76533 c -2.04,0 -3.69467,-1.65467 -3.69467,-3.69334 v -7.28933 c 0,-2.04 1.65467,-3.69467 3.69467,-3.69467 h 7.76533 c 2.04,0 3.69467,1.65467 3.69467,3.69467 v 7.28933 c 0,2.03867 -1.65467,3.69334 -3.69467,3.69334" /><path
     id="path24"
     style="fill:#80cedf;fill-opacity:1;fill-rule:nonzero;stroke:none;stroke-width:0.133333"
     d="m 148.292,486.27734 h -10.28534 c -2.70266,0 -4.89266,-2.192 -4.89266,-4.89333 v -9.65467 c 0,-2.70267 2.19,-4.89333 4.89266,-4.89333 H 148.292 c 2.70266,0 4.89333,2.19066 4.89333,4.89333 v 9.65467 c 0,2.70133 -2.19067,4.89333 -4.89333,4.89333" /><path
     id="path26"
     style="fill:none;stroke:#ffffff;stroke-width:1.72343;stroke-linecap:round;stroke-linejoin:round;stroke-miterlimit:10;stroke-dasharray:none;stroke-opacity:1"
     d="m 637.68665,81.218685 h 35.21333 c 1.804,0 3.26534,1.481333 3.26534,3.310666 v 17.263999 c 0,1.828 -1.46134,3.31067 -3.26534,3.31067 h -18.16 l -10.79466,9.24933 v -8.76 l -6.324,-0.17867 c -1.77867,-0.0373 -3.2,-1.508 -3.2,-3.31066 V 84.529351 c 0,-1.829333 1.46266,-3.310666 3.26533,-3.310666 z" /><path
     id="path28"
     style="fill:none;stroke:#ffffff;stroke-width:1.67627;stroke-linecap:butt;stroke-linejoin:miter;stroke-miterlimit:10;stroke-dasharray:none;stroke-opacity:1"
     d="m 870.91331,241.12801 c 0,5.97467 -4.77733,10.81867 -10.66933,10.81867 -5.89333,0 -10.67067,-4.844 -10.67067,-10.81867 0,-5.976 4.77734,-10.82 10.67067,-10.82 5.892,0 10.66933,4.844 10.66933,10.82 z" /><path
     id="path30"
     style="fill:none;stroke:#ffffff;stroke-width:1.67627;stroke-linecap:butt;stroke-linejoin:miter;stroke-miterlimit:10;stroke-dasharray:none;stroke-opacity:1"
     d="m 105.22653,331.29335 c 0,5.97466 -4.77653,10.81866 -10.669732,10.81866 -5.8928,0 -10.669867,-4.844 -10.669867,-10.81866 0,-5.976 4.777067,-10.82 10.669867,-10.82 5.893202,0 10.669732,4.844 10.669732,10.82 z" /><path
     id="path32"
     style="fill:#337cc3;fill-opacity:1;fill-rule:nonzero;stroke:none;stroke-width:0.133333"
     d="m 395.44532,97.680018 c 0.40667,0.473333 1.18267,0.185333 1.18134,-0.438667 l -0.0413,-13 V 63.206685 c 0,-2.570667 -2.084,-4.653333 -4.65333,-4.653333 h -56.63467 c -2.57066,0 -4.65333,2.082666 -4.65333,4.653333 v 22.825333 c 0,2.570666 2.08267,4.654666 4.65333,4.654666 h 54.16134 l 5.98666,6.993334" /><path
     id="path34"
     style="fill:#ffffff;fill-opacity:1;fill-rule:nonzero;stroke:none;stroke-width:0.133333"
     d="m 352.95332,74.800018 c 0.005,1.564 -1.25866,2.834667 -2.82,2.838667 -1.564,0.0053 -2.83466,-1.257334 -2.83866,-2.82 -0.005,-1.562667 1.25733,-2.833333 2.82,-2.838667 1.56266,-0.0053 2.83333,1.257334 2.83866,2.82" /><path
     id="path36"
     style="fill:#ffffff;fill-opacity:1;fill-rule:nonzero;stroke:none;stroke-width:0.133333"
     d="m 365.09199,74.762685 c 0.004,1.564 -1.25867,2.834666 -2.82133,2.838666 -1.56267,0.0053 -2.83334,-1.257333 -2.83867,-2.82 -0.005,-1.562666 1.25733,-2.834666 2.82133,-2.838666 1.56267,-0.0053 2.83334,1.257333 2.83867,2.82" /><path
     id="path38"
     style="fill:#ffffff;fill-opacity:1;fill-rule:nonzero;stroke:none;stroke-width:0.133333"
     d="m 377.22932,74.725351 c 0.005,1.562667 -1.25866,2.834667 -2.82,2.838667 -1.564,0.0053 -2.83466,-1.258667 -2.83866,-2.821333 -0.005,-1.562667 1.25733,-2.833333 2.82,-2.838667 1.56266,-0.004 2.83333,1.257334 2.83866,2.821333" /><path
     id="path40"
     style="fill:#337cc3;fill-opacity:1;fill-rule:nonzero;stroke:none;stroke-width:0.133333"
     d="m 835.32665,151.47202 h -66.23734 c -6.43333,0 -11.64933,-5.21467 -11.64933,-11.648 V 78.242685 c 0,-4.877334 3.95333,-8.830667 8.832,-8.830667 h 69.05467 c 4.87733,0 8.832,3.953333 8.832,8.830667 v 64.398665 c 0,4.87733 -3.95467,8.83067 -8.832,8.83067" /><path
     id="path42"
     style="fill:#ffffff;fill-opacity:1;fill-rule:nonzero;stroke:none;stroke-width:0.133333"
     d="m 818.48798,121.93068 c -0.368,0.36667 -0.73467,0.73467 -1.10267,1.10267 -0.644,0.552 -1.19466,1.19467 -1.83866,1.83867 -0.91867,0.91866 -1.93067,1.37733 -3.30934,1.37733 -0.184,0 -0.276,0 -0.46,0 -2.756,-0.18267 -5.33066,-1.28533 -7.16933,-2.20533 -5.23733,-2.57334 -9.83333,-6.15867 -13.69333,-10.75334 -3.12534,-3.76933 -5.24,-7.35333 -6.70934,-11.12133 -0.92,-2.205332 -1.28666,-3.953332 -1.10266,-5.698666 0.0907,-1.010666 0.45866,-1.930666 1.28533,-2.665333 l 3.12533,-3.125333 c 0.276,-0.276 0.736,-0.642667 1.28667,-0.642667 0.552,0 0.91867,0.274667 1.28667,0.642667 0.552,0.552 1.104,1.102666 1.65466,1.654666 0.276,0.276 0.552,0.642667 0.92,0.918667 l 2.572,2.574667 c 0.276,0.274666 0.64534,0.826666 0.64534,1.286666 0,0.550667 -0.36934,1.010667 -0.64534,1.286667 -0.27466,0.274667 -0.55066,0.550667 -0.82666,0.826667 -0.82667,0.826662 -1.56267,1.562662 -2.29867,2.298662 0,0 0,0 -0.0907,0.0907 -0.91866,0.92 -0.736,1.74667 -0.552,2.29733 v 0.092 c 0.64267,1.65467 1.65467,3.12534 3.03334,4.964 2.57333,3.21734 5.33066,5.69867 8.364,7.62934 0.368,0.27466 0.828,0.46 1.19466,0.64266 0.368,0.184 0.644,0.276 0.92,0.46 l 0.0907,0.092 c 0.92,0.45867 1.83867,0.27467 2.57467,-0.46 l 3.216,-3.21733 c 0.276,-0.276 0.736,-0.64267 1.288,-0.64267 0.46,0 0.91866,0.36667 1.19333,0.64267 l 5.148,5.148 c 0.828,0.82667 0.828,1.74533 0,2.66533 z m 2.11467,-4.78 -5.148,-5.14666 c -0.91867,-1.01067 -2.11467,-1.56267 -3.308,-1.56267 -1.196,0 -2.39067,0.552 -3.31067,1.47067 l -2.94,2.94 c -0.184,-0.0907 -0.368,-0.18267 -0.552,-0.27467 -0.36667,-0.184 -0.64267,-0.276 -0.91867,-0.46 -2.75733,-1.74533 -5.23866,-4.044 -7.62933,-6.98533 -1.10267,-1.37867 -1.92933,-2.66534 -2.38933,-3.768 0.736,-0.64267 1.37866,-1.37867 2.02266,-2.02267 0.276,-0.27467 0.552,-0.55067 0.82667,-0.82667 1.012,-1.010662 1.56267,-2.206662 1.56267,-3.399996 0,-1.196 -0.55067,-2.390666 -1.56267,-3.401333 l -2.57333,-2.573333 c -0.276,-0.276 -0.552,-0.552 -0.82667,-0.918667 -0.552,-0.552 -1.19467,-1.194667 -1.748,-1.746667 -0.91733,-0.92 -2.112,-1.470666 -3.308,-1.470666 -1.19333,0 -2.29733,0.46 -3.308,1.470666 l -3.21733,3.217334 c -1.19467,1.193333 -1.93067,2.756 -2.11334,4.502666 -0.184,2.757334 0.55067,5.331996 1.19467,6.985336 1.47067,4.228 3.768,7.996 7.168,12.04133 4.13733,4.87067 9.008,8.73067 14.70667,11.488 2.11333,1.012 5.05466,2.20533 8.272,2.48267 0.184,0 0.368,0 0.644,0 2.20533,0 4.044,-0.828 5.51466,-2.39067 0,0 0,0 0.092,-0.092 0.45867,-0.55067 1.01067,-1.10267 1.65334,-1.65467 0.368,-0.36666 0.82666,-0.82666 1.196,-1.19466 1.92933,-2.02134 1.92933,-4.77867 0,-6.70934" /><path
     id="path44"
     style="fill:#efb91d;fill-opacity:1;fill-rule:nonzero;stroke:none;stroke-width:0.133333"
     d="m 196.32133,215.10401 h -74.24067 c -7.21093,0 -13.05613,-5.84533 -13.05613,-13.056 v -69.02133 c 0,-5.46666 4.43173,-9.89733 9.8984,-9.89733 h 77.3984 c 5.46666,0 9.89733,4.43067 9.89733,9.89733 v 72.17867 c 0,5.46666 -4.43067,9.89866 -9.89733,9.89866" /><path
     id="path46"
     style="fill:#ffffff;fill-opacity:1;fill-rule:nonzero;stroke:none;stroke-width:0.133333"
     d="M 181.17333,167.06402 H 169.928 c -0.0613,-3.38 -0.50134,-6.76134 -1.33734,-10.14267 H 178.14 c 1.724,3.02533 2.79866,6.47067 3.03333,10.14267 z M 178.14,180.26668 h -9.852 c 0.89066,-3.38 1.428,-6.76133 1.59333,-10.14266 h 11.292 c -0.23467,3.672 -1.308,7.11733 -3.03333,10.14266 z m -13.97867,11.01067 c 1.28267,-2.64933 2.36,-5.3 3.224,-7.95067 h 8.676 c -3.01067,3.76267 -7.148,6.584 -11.9,7.95067 z m -6.53867,0.91867 c -1.048,0 -2.08133,-0.068 -3.09333,-0.2 -1.44133,-2.88934 -2.66933,-5.78 -3.65867,-8.66934 H 164.372 c -0.988,2.88934 -2.216,5.78 -3.65734,8.66934 -1.01333,0.132 -2.044,0.2 -3.092,0.2 z m -18.44,-8.86934 h 8.676 c 0.864,2.64934 1.94134,5.30134 3.224,7.95067 -4.75333,-1.36667 -8.89066,-4.188 -11.9,-7.95067 z m -2.07866,-3.06 c -1.72534,-3.02533 -2.8,-6.47066 -3.03334,-10.14266 h 11.292 c 0.16534,3.38 0.70267,6.76133 1.59334,10.14266 z m 0,-23.34533 h 9.54933 c -0.83733,3.38133 -1.276,6.76267 -1.33733,10.14267 h -11.24534 c 0.23467,-3.672 1.308,-7.11734 3.03334,-10.14267 z m 13.65866,-10.916 c -1.32933,2.61867 -2.40666,5.23867 -3.24133,7.856 h -8.33867 c 2.94134,-3.67733 6.96134,-6.456 11.58,-7.856 z m 6.86,-1.01333 c 1.25734,0 2.49067,0.0987 3.696,0.28666 1.60267,2.86134 2.85867,5.72267 3.79334,8.58267 h -14.97867 c 0.93333,-2.86 2.18933,-5.72133 3.792,-8.58267 1.20533,-0.188 2.43867,-0.28666 3.69733,-0.28666 z m 9.504,25.132 c -0.232,3.38 -0.844,6.76266 -1.79866,10.14266 h -15.41334 c -0.95333,-3.38 -1.56533,-6.76133 -1.79733,-10.14266 z m -19.112,-3.06 c 0.005,-3.38 0.404,-6.76134 1.24,-10.14267 h 16.73467 c 0.83733,3.38133 1.23467,6.76267 1.24,10.14267 z m 28.04667,-13.20267 H 167.724 c -0.83734,-2.61733 -1.91334,-5.23733 -3.24134,-7.856 4.61734,1.40133 8.63734,4.17867 11.57867,7.856 z m -36.93867,-3.76667 c -10.16066,10.16 -10.1596,26.83867 0,36.99867 10.16,10.16 26.83867,10.16 36.99867,0 10.16,-10.16 10.16,-26.83867 0,-36.99867 -10.16,-10.16 -26.83867,-10.16 -36.99867,0" /><path
     id="path48"
     style="fill:#61c9b2;fill-opacity:1;fill-rule:nonzero;stroke:none;stroke-width:0.133333"
     d="m 910.12264,400.55868 h -70.73866 c -6.872,0 -12.44133,-5.57067 -12.44133,-12.44134 v -65.76666 c 0,-5.20933 4.22266,-9.432 9.432,-9.432 h 73.74799 c 5.20934,0 9.432,4.22267 9.432,9.432 v 68.776 c 0,5.20933 -4.22266,9.432 -9.432,9.432" /><path
     id="path50"
     style="fill:#ffffff;fill-opacity:1;fill-rule:nonzero;stroke:none;stroke-width:0.133333"
     d="m 864.41465,349.57734 c 0,-4.66 3.77599,-8.436 8.43333,-8.436 4.65866,0 8.43466,3.776 8.43466,8.436 0,4.65734 -3.776,8.43334 -8.43466,8.43334 -4.65467,-0.005 -8.428,-3.77734 -8.43333,-8.43334 z m 19.67999,0 c 0,-6.212 -5.036,-11.24666 -11.24666,-11.24666 -6.20933,0 -11.244,5.03466 -11.244,11.24666 0,6.20934 5.03467,11.244 11.244,11.244 6.208,-0.007 11.23866,-5.03733 11.24666,-11.244" /><path
     id="path52"
     style="fill:#ffffff;fill-opacity:1;fill-rule:nonzero;stroke:none;stroke-width:0.133333"
     d="m 872.84798,334.11334 c 8.54,0 15.46266,6.92267 15.46266,15.464 0,6.72534 -10.27733,22.612 -15.46266,29.92267 -5.184,-7.31067 -15.46133,-23.19733 -15.46133,-29.92267 0,-8.54133 6.92266,-15.464 15.46133,-15.464 z m -1.13334,48.624 c 0.45734,0.62534 1.33734,0.76267 1.964,0.304 0.116,-0.0853 0.21867,-0.18666 0.30534,-0.304 0.11333,-0.156 0.648,-0.88933 1.46,-2.044 l 8.29866,-12.83333 c 3.85467,-6.576 7.38,-13.80933 7.38,-18.28267 0,-10.09333 -8.18133,-18.27466 -18.27466,-18.27466 -10.09067,0 -18.27333,8.18133 -18.27333,18.27466 0,4.344 3.32666,11.292 7.04933,17.712 l 8.63333,13.40934 c 0.81067,1.152 1.344,1.88266 1.45733,2.03866" /><path
     id="path54"
     style="fill:#cd6740;fill-opacity:1;fill-rule:nonzero;stroke:none;stroke-width:0.133333"
     d="m 220.39866,327.35468 -5.67467,13.64533 c 0,0 32.69467,23.41733 59.744,36.86133 8.532,4.24 18.44667,-2.728 17.91734,-12.24133 -0.005,-0.0973 -0.0107,-0.196 -0.0173,-0.29467 -0.29066,-5.15866 -3.68533,-9.628 -8.57866,-11.28666 -27.65867,-9.37334 -33.06134,-13.11067 -63.39067,-26.684" /><path
     id="path56"
     style="fill:#cd6740;fill-opacity:1;fill-rule:nonzero;stroke:none;stroke-width:0.133333"
     d="m 219.04666,342.21868 c 0,0 -28.27866,12.464 -38.676,-5.62 l 42.88533,-10.644 -4.20933,16.264" /><path
     id="path58"
     style="fill:#cd6740;fill-opacity:1;fill-rule:nonzero;stroke:none;stroke-width:0.133333"
     d="m 307.18933,278.79735 c -13.52,23.156 -29.82534,56.30133 -38.78267,81.55733 -2.31333,6.52266 0.06,13.812 6.356,16.68533 0.0747,0.036 0.14933,0.0693 0.224,0.10267 6.16933,2.83466 13.468,0.52266 16.75867,-5.41467 20.43866,-36.87733 38.64266,-65.616 38.64266,-65.616 l -23.19866,-27.31466" /><path
     id="path60"
     style="fill:#61c9b2;fill-opacity:1;fill-rule:nonzero;stroke:none;stroke-width:0.133333"
     d="m 307.74399,272.41068 c 0,0 -20.31866,4.31467 -37.31066,54.47333 l 38.24266,22.688 14.10134,-28.00533 -15.03334,-49.156" /><path
     id="path62"
     style="fill:#191821;fill-opacity:1;fill-rule:nonzero;stroke:none;stroke-width:0.133333"
     d="m 288.94266,336.94668 h -44.13467 v -7.06933 h 44.13467 c 1.95067,0 3.53333,1.58266 3.53333,3.53466 v 0 c 0,1.952 -1.58266,3.53467 -3.53333,3.53467" /><path
     id="path64"
     style="fill:#232238;fill-opacity:1;fill-rule:nonzero;stroke:none;stroke-width:0.133333"
     d="M 262.35599,336.92001 H 161.79066 c -2.35333,0 -4.43466,-1.52667 -5.14,-3.772 l -17.81733,-59.56933 c -0.77333,-2.464 1.06667,-4.96933 3.648,-4.96933 h 95.356 c 2.35333,0 4.43466,1.528 5.14,3.772 l 19.37866,64.53866" /><path
     id="path66"
     style="fill:#dbf2f5;fill-opacity:1;fill-rule:nonzero;stroke:none;stroke-width:0.133333"
     d="m 204.32399,300.40401 c 0.74534,4.14134 -2.00666,8.10267 -6.14666,8.848 -4.14133,0.74667 -8.10267,-2.00533 -8.84933,-6.14666 -0.74534,-4.14 2.00666,-8.10267 6.148,-8.848 4.14,-0.74534 8.10266,2.00666 8.84799,6.14666" /><path
     id="path68"
     style="fill:#cd6740;fill-opacity:1;fill-rule:nonzero;stroke:none;stroke-width:0.133333"
     d="m 398.01066,343.82001 c 0,0 24.27066,87.62533 34.17333,163.84533 l 16.66267,-3.15867 c 0,0 -5.172,-111.68399 -21.97867,-180.77332 l -28.85733,20.08666" /><path
     id="path70"
     style="fill:#cd6740;fill-opacity:1;fill-rule:nonzero;stroke:none;stroke-width:0.133333"
     d="m 448.71199,500.68401 c 0,0 25.07466,37.02386 -5.01867,53.66653 -1.98266,1.0964 -4.48666,0.64947 -5.95333,-1.07707 l -0.19467,-0.22973 c -1.61866,-1.90627 -1.436,-4.6968 0.32134,-6.47707 4.27333,-4.33333 10.024,-13.31466 0.86,-25.04266 0,0 -4.80934,1.22666 -4.004,10.776 0.208,2.45573 -1.83334,4.52813 -4.288,4.2932 v 0 c -1.67467,-0.1588 -3.05067,-1.35574 -3.46,-2.98907 -1.57734,-6.2948 -4.188,-21.9068 5.87466,-30.29347 l 15.86267,-2.62666" /><path
     id="path72"
     style="fill:#61c9b2;fill-opacity:1;fill-rule:nonzero;stroke:none;stroke-width:0.133333"
     d="m 401.16532,272.41068 c 0,0 15.52534,4.52533 32.08,56.95467 l -38.244,22.68666 -8.86933,-30.48533 15.03333,-49.156" /><path
     id="path74"
     style="fill:#61c9b2;fill-opacity:1;fill-rule:nonzero;stroke:none;stroke-width:0.133333"
     d="m 398.82666,270.98935 -28.80934,-11.468 -29.62,0.39733 -29.71866,10.892 c -5.576,2.04533 -8.70533,7.97333 -7.24533,13.73067 l 21.824,86.09066 h 58.46933 l 20.15866,-90.06266 c 0.896,-4.00267 -1.24933,-8.064 -5.05866,-9.58" /><path
     id="path76"
     style="fill:#232238;fill-opacity:1;fill-rule:nonzero;stroke:none;stroke-width:0.133333"
     d="m 383.72666,379.98668 h -58.46933 v -9.35467 h 58.46933 v 9.35467" /><path
     id="path78"
     style="fill:none;stroke:#4aa897;stroke-width:1.82448;stroke-linecap:butt;stroke-linejoin:miter;stroke-miterlimit:10;stroke-dasharray:none;stroke-opacity:1"
     d="m 316.52266,336.18001 -10.03333,-39.58" /><path
     id="path80"
     style="fill:none;stroke:#4aa897;stroke-width:1.82448;stroke-linecap:butt;stroke-linejoin:miter;stroke-miterlimit:10;stroke-dasharray:none;stroke-opacity:1"
     d="m 390.97866,338.22801 9.31866,-41.628" /><path
     id="path82"
     style="fill:#3163b7;fill-opacity:1;fill-rule:nonzero;stroke:none;stroke-width:0.133333"
     d="m 383.72666,379.98668 h -58.46933 c 0,0 -28.33334,7.18 -47.29067,139.88666 -2.88933,20.22667 -5.38133,39.9428 -7.53333,58.84387 h 55.216 l 24.39466,-122.47453 5.33467,1.40133 9.00533,121.0732 h 51.876 l 1.084,-65.4052 c 0,0 -4.67467,-106.45333 -33.61733,-133.32533" /><path
     id="path84"
     style="fill:none;stroke:#315694;stroke-width:1.82448;stroke-linecap:butt;stroke-linejoin:miter;stroke-miterlimit:10;stroke-dasharray:none;stroke-opacity:1"
     d="m 355.37866,457.64401 -18.168,-7.09333" /><path
     id="path86"
     style="fill:#232238;fill-opacity:1;fill-rule:nonzero;stroke:none;stroke-width:0.133333"
     d="m 403.26932,209.31068 c -2.58666,-9.81333 -3.52666,-8.06 -12.22933,-27.58 -5.19867,-11.66266 -9.22133,-16.34933 -11.61867,-18.236 v -10e-4 c 0,0 -8.79066,-9.46267 -24.516,-9.46267 -15.01466,0 -23.70933,8.992 -23.70933,8.992 v 0 c -2.28,1.52 -6.56533,5.92534 -12.264,18.708 -8.70133,19.52 -9.64266,17.76667 -12.22933,27.58 -2.588,9.81467 0.70533,27.92533 20.93067,31.45333 0,0 -2.58534,-2.588 -3.52667,-6.82133 0,0 8.46667,11.52533 19.99066,10.81867 h 21.77734 c 11.524,0.70666 19.99066,-10.81867 19.99066,-10.81867 -0.94,4.23333 -3.528,6.82133 -3.528,6.82133 20.22667,-3.528 23.51867,-21.63866 20.932,-31.45333" /><path
     id="path88"
     style="fill:#cd6740;fill-opacity:1;fill-rule:nonzero;stroke:none;stroke-width:0.133333"
     d="m 381.93999,264.26801 -11.92267,-4.74666 -3.6,-31.372 c 0,0 -3.716,3.788 -8.64666,4.70533 -4.932,0.916 -9.70667,-1.96667 -9.768,-2.00267 -0.06,-0.0347 -4.02667,-3.33733 -4.02667,-3.33733 l -3.57867,32.404 -12.99333,4.76267 c 0,0 0.84,8.44133 28.32133,8.44133 27.48134,0 26.21467,-8.85467 26.21467,-8.85467" /><path
     id="path90"
     style="fill:#232238;fill-opacity:1;fill-rule:nonzero;stroke:none;stroke-width:0.133333"
     d="m 341.70799,228.63868 c 0,0 7.54933,14.576 16.53733,12.488 9.384,-2.18133 9.34134,-14.50667 9.34134,-14.50667 l -25.87867,2.01867" /><path
     id="path92"
     style="fill:#232238;fill-opacity:1;fill-rule:nonzero;stroke:none;stroke-width:0.133333"
     d="m 387.30932,186.74802 c 0,17.85066 -13.89066,32.32133 -31.02533,32.32133 -17.136,0 -31.02666,-14.47067 -31.02666,-32.32133 0,-17.85067 13.89066,-29.99467 31.02666,-29.99467 17.13467,0 31.02533,12.144 31.02533,29.99467" /><path
     id="path94"
     style="fill:#cd6740;fill-opacity:1;fill-rule:nonzero;stroke:none;stroke-width:0.133333"
     d="m 381.92132,188.41068 c 0,11.128 -1.548,20.732 -3.09333,27.548 -1.51333,6.672 -5.772,11.336 -11.78933,15.08933 l -1.096,0.684 c -6.36534,3.97067 -14.592,4.064 -21.05734,0.23734 v 0 c -6.52,-3.86 -11.08533,-8.94934 -12.48933,-16.11067 -2.55466,-13.024 -2.83466,-27.448 -2.83466,-27.448 0,0 -2.43067,-28.09333 25.80666,-27.548 28.23733,0.54667 26.55333,27.548 26.55333,27.548" /><path
     id="path96"
     style="fill:#cd6740;fill-opacity:1;fill-rule:nonzero;stroke:none;stroke-width:0.133333"
     d="m 332.64133,214.79468 c -4.976,4.296 -15.452,-12.716 -10.63334,-17.30266 4.81867,-4.58667 8.22534,2.87733 8.22534,2.87733 l 0.97733,5.376 1.45467,7.23466 0.37466,1.62267 -0.39866,0.192" /><path
     id="path98"
     style="fill:none;stroke:#232238;stroke-width:1.33855;stroke-linecap:round;stroke-linejoin:round;stroke-miterlimit:10;stroke-dasharray:none;stroke-opacity:1"
     d="m 324.17199,203.22401 c 0,0 2.036,-4.40533 6.772,3.332" /><path
     id="path100"
     style="fill:#cd6740;fill-opacity:1;fill-rule:nonzero;stroke:none;stroke-width:0.133333"
     d="m 378.81466,214.89335 c 5.048,4.21066 15.23066,-12.97734 10.33466,-17.48133 -4.896,-4.50267 -8.176,3.01733 -8.176,3.01733 l -0.884,5.392 -1.33066,7.25866 -0.34667,1.62934 0.40267,0.184" /><path
     id="path102"
     style="fill:none;stroke:#232238;stroke-width:1.33855;stroke-linecap:round;stroke-linejoin:round;stroke-miterlimit:10;stroke-dasharray:none;stroke-opacity:1"
     d="m 387.08399,203.18135 c 0,0 -2.112,-4.37067 -6.71467,3.44533" /><path
     id="path104"
     style="fill:#232238;fill-opacity:1;fill-rule:nonzero;stroke:none;stroke-width:0.133333"
     d="m 329.92399,197.16135 c 0,0 11.29067,-15.264 8.68667,-30.72533 0,0 -8.38,4.21733 -10.56133,15.10133 -2.18267,10.884 1.87466,15.624 1.87466,15.624" /><path
     id="path106"
     style="fill:#232238;fill-opacity:1;fill-rule:nonzero;stroke:none;stroke-width:0.133333"
     d="m 382.39599,197.46002 c 0,0 -13.56933,-16.6 -10.96533,-32.06267 0,0 9.096,5.256 11.27866,16.14 2.18134,10.884 -0.31333,15.92267 -0.31333,15.92267" /><path
     id="path108"
     style="fill:#232238;fill-opacity:1;fill-rule:nonzero;stroke:none;stroke-width:0.133333"
     d="m 321.54799,186.18268 h 68.35467 c 0,0 -7.7,-28.956 -36.528,-30.68133 -28.82933,-1.72533 -31.82667,30.68133 -31.82667,30.68133" /><path
     id="path110"
     style="fill:#232238;fill-opacity:1;fill-rule:nonzero;stroke:none;stroke-width:0.133333"
     d="m 345.83332,199.32135 c 0,1.43733 -1.16666,2.604 -2.604,2.604 -1.43733,0 -2.60266,-1.16667 -2.60266,-2.604 0,-1.43733 1.16533,-2.60267 2.60266,-2.60267 1.43734,0 2.604,1.16534 2.604,2.60267" /><path
     id="path112"
     style="fill:#232238;fill-opacity:1;fill-rule:nonzero;stroke:none;stroke-width:0.133333"
     d="m 369.93599,199.32135 c 0,1.43733 -1.16533,2.604 -2.604,2.604 -1.43733,0 -2.60267,-1.16667 -2.60267,-2.604 0,-1.43733 1.16534,-2.60267 2.60267,-2.60267 1.43867,0 2.604,1.16534 2.604,2.60267" /><path
     id="path114"
     style="fill:none;stroke:#232238;stroke-width:1.31674;stroke-linecap:round;stroke-linejoin:round;stroke-miterlimit:10;stroke-dasharray:none;stroke-opacity:1"
     d="m 353.97599,204.99335 0.003,3.512 c 10e-4,0.88533 0.788,1.55066 1.628,1.37333 l 1.868,-0.392" /><path
     id="path116"
     style="fill:#232238;fill-opacity:1;fill-rule:nonzero;stroke:none;stroke-width:0.133333"
     d="m 350.96532,191.25602 -15.77733,1.896 c 0,0 1.26533,-4.18534 7.712,-4.90267 6.44667,-0.72 8.06533,3.00667 8.06533,3.00667" /><path
     id="path118"
     style="fill:#232238;fill-opacity:1;fill-rule:nonzero;stroke:none;stroke-width:0.133333"
     d="m 360.06132,191.25602 15.77734,1.896 c 0,0 -1.26534,-4.18534 -7.712,-4.90267 -6.44667,-0.72 -8.06534,3.00667 -8.06534,3.00667" /><path
     id="path120"
     style="fill:none;stroke:#61c9b2;stroke-width:1.44395;stroke-linecap:butt;stroke-linejoin:miter;stroke-miterlimit:10;stroke-dasharray:none;stroke-opacity:1"
     d="m 351.43332,199.24402 c 0,5.94533 -4.82,10.76399 -10.764,10.76399 -5.94533,0 -10.76533,-4.81866 -10.76533,-10.76399 0,-5.94534 4.82,-10.76534 10.76533,-10.76534 5.944,0 10.764,4.82 10.764,10.76534 z" /><path
     id="path122"
     style="fill:none;stroke:#61c9b2;stroke-width:1.44395;stroke-linecap:butt;stroke-linejoin:miter;stroke-miterlimit:10;stroke-dasharray:none;stroke-opacity:1"
     d="m 381.92132,199.24402 c 0,5.94533 -4.81866,10.76399 -10.764,10.76399 -5.94533,0 -10.76533,-4.81866 -10.76533,-10.76399 0,-5.94534 4.82,-10.76534 10.76533,-10.76534 5.94534,0 10.764,4.82 10.764,10.76534 z" /><path
     id="path124"
     style="fill:none;stroke:#61c9b2;stroke-width:1.44395;stroke-linecap:butt;stroke-linejoin:miter;stroke-miterlimit:10;stroke-dasharray:none;stroke-opacity:1"
     d="m 351.43332,200.13868 c 0,0 3.80134,-5.844 8.95867,0" /><path
     id="path126"
     style="fill:#ffffff;fill-opacity:1;fill-rule:nonzero;stroke:none;stroke-width:0.133333"
     d="m 347.32666,214.80401 h 17.17333 c 0,0 -8.04667,9.596 -17.17333,0" /><path
     id="path128"
     style="fill:#f08b5d;fill-opacity:1;fill-rule:nonzero;stroke:none;stroke-width:0.133333"
     d="m 720.17065,300.38135 39.20533,33.92933 c 7.41467,6.41733 8.32933,17.58933 2.05867,25.12666 v 0 c -6.30267,7.57467 -17.52134,8.676 -25.17467,2.47334 l -38.84533,-31.48 22.756,-30.04933" /><path
     id="path130"
     style="fill:#337cc3;fill-opacity:1;fill-rule:nonzero;stroke:none;stroke-width:0.133333"
     d="m 670.21732,267.14935 c 28.51333,4.608 59.80666,33.232 59.80666,33.232 l -25.88133,37.02266 -34.08,-27.91333 0.15467,-42.34133" /><path
     id="path132"
     style="fill:#f08b5d;fill-opacity:1;fill-rule:nonzero;stroke:none;stroke-width:0.133333"
     d="m 761.56531,263.16668 -28.18266,80.52266 c -3.144,8.9 1.83333,18.61467 10.896,21.26134 v 0 c 9.548,2.788 19.36533,-3.472 20.86666,-13.304 l 14.45334,-85.5 -18.03334,-2.98" /><path
     id="path134"
     style="fill:#f08b5d;fill-opacity:1;fill-rule:nonzero;stroke:none;stroke-width:0.133333"
     d="m 761.56531,263.16668 c 0,0 -5.53866,-7.136 -6.63466,-27.54 -0.0693,-1.27333 0.66,-2.468 1.81466,-3.01333 v 0 c 1.692,-0.79734 3.70534,0.044 4.328,1.80933 l 2.80534,8.51733 15.72,23.20667 -18.03334,-2.98" /><path
     id="path136"
     style="fill:#f08b5d;fill-opacity:1;fill-rule:nonzero;stroke:none;stroke-width:0.133333"
     d="m 763.87865,242.94001 0.68,-28.316 c 0.0573,-1.20533 0.856,-2.89733 2.39466,-2.96266 v 0 c 1.67467,-0.18534 2.94934,0.98666 2.99067,2.30133 l 0.63867,20.07733 3.73466,-23.476 c 0.18134,-1.14133 1.22934,-1.93733 2.37734,-1.80666 v 0 c 1.12933,0.13066 1.96533,1.11333 1.91066,2.248 l -1.22,25.48133 5.11067,-20.93867 c 0.27733,-1.13333 1.328,-1.90533 2.492,-1.83066 v 0 c 1.372,0.088 2.39333,1.308 2.236,2.67466 l -2.62533,22.97467 10.152,-14.29733 c 0.872,-1.03867 2.45466,-1.084 3.38533,-0.0987 v 0 c 0.69733,0.73867 0.82,1.85067 0.29867,2.724 l -8.54,17.30533 c 0,0 -0.536,10.768 -10.296,21.14667 l -15.08934,-8.96667 -0.63066,-14.24" /><path
     id="path138"
     style="fill:none;stroke:#232238;stroke-width:1.35547;stroke-linecap:round;stroke-linejoin:round;stroke-miterlimit:10;stroke-dasharray:none;stroke-opacity:1"
     d="m 763.87865,242.94001 c 0,0 10.67333,0.0467 10.87333,9.632" /><path
     id="path140"
     style="fill:#337cc3;fill-opacity:1;fill-rule:nonzero;stroke:none;stroke-width:0.133333"
     d="m 667.32665,264.93735 21.324,8.08133 c 5.576,2.044 6.99867,8.23333 5.53867,13.99067 l -9.856,121.99733 h -84.11734 l -6.47999,-125.96933 c -0.896,-4.00267 1.24933,-8.064 5.05866,-9.58 l 28.81067,-11.468 39.72133,2.948" /><path
     id="path142"
     style="fill:none;stroke:#31658e;stroke-width:1.94407;stroke-linecap:butt;stroke-linejoin:miter;stroke-miterlimit:10;stroke-dasharray:none;stroke-opacity:1"
     d="m 690.98798,326.62935 1.96667,-24.352" /><path
     id="path144"
     style="fill:#f08b5d;fill-opacity:1;fill-rule:nonzero;stroke:none;stroke-width:0.133333"
     d="m 595.69732,348.90668 c 0,0 -22.856,88.82266 -28.57067,165.46933 l -16.81066,-2.24134 c 0,0 2.46933,-111.79866 15.46666,-181.70399 l 29.91467,18.476" /><path
     id="path146"
     style="fill:#337cc3;fill-opacity:1;fill-rule:nonzero;stroke:none;stroke-width:0.133333"
     d="m 596.45465,274.87868 c 0,0 -18.94533,4.52533 -35.49866,56.95467 l 41.66399,22.68799 8.86934,-30.48666 -15.03467,-49.156" /><path
     id="path148"
     style="fill:#f08b5d;fill-opacity:1;fill-rule:nonzero;stroke:none;stroke-width:0.133333"
     d="m 657.70398,262.04268 -1.648,-30.23333 c 0,0 -5.584,3.9 -10.66133,4.84266 -5.07467,0.944 -9.99067,-2.024 -10.05333,-2.06 -0.0627,-0.036 -5.904,-3.436 -5.904,-3.436 l -1.77867,30.832 -0.0533,0.001 -8.88534,3.53733 c 0,0 5.58134,9.50533 24.19334,8.53867 18.61333,-0.96667 24.41333,-9.128 24.41333,-9.128 l -9.62267,-2.89467" /><path
     id="path150"
     style="fill:#232238;fill-opacity:1;fill-rule:nonzero;stroke:none;stroke-width:0.133333"
     d="m 628.23332,232.31335 c 0,0 8.22133,15.004 18.01066,12.85466 10.22,-2.244 10.604,-15.32533 10.604,-15.32533 l -28.61466,2.47067" /><path
     id="path152"
     style="fill:#f08b5d;fill-opacity:1;fill-rule:nonzero;stroke:none;stroke-width:0.133333"
     d="m 670.25732,190.90268 c 0,11.456 -1.59467,21.34133 -3.18534,28.35733 -1.55733,6.86934 -5.94,11.66934 -12.13466,15.53334 l -1.128,0.704 c -6.55467,4.088 -15.02267,4.184 -21.67734,0.244 v 0 c -6.71066,-3.97334 -11.41066,-9.21334 -12.85733,-16.584 -2.62933,-13.40667 -2.91733,-28.25467 -2.91733,-28.25467 0,0 -2.50267,-28.92 26.56666,-28.35733 29.068,0.56133 27.33334,28.35733 27.33334,28.35733" /><path
     id="path154"
     style="fill:#f08b5d;fill-opacity:1;fill-rule:nonzero;stroke:none;stroke-width:0.133333"
     d="m 619.52798,218.06135 c -5.12266,4.42266 -15.90533,-13.08934 -10.94533,-17.81067 4.96,-4.72133 8.468,2.96133 8.468,2.96133 l 1.004,5.53467 1.49733,7.448 0.38667,1.66933 -0.41067,0.19734" /><path
     id="path156"
     style="fill:none;stroke:#232238;stroke-width:1.37792;stroke-linecap:round;stroke-linejoin:round;stroke-miterlimit:10;stroke-dasharray:none;stroke-opacity:1"
     d="m 610.80932,206.15201 c 0,0 2.096,-4.536 6.972,3.428" /><path
     id="path158"
     style="fill:#f08b5d;fill-opacity:1;fill-rule:nonzero;stroke:none;stroke-width:0.133333"
     d="m 667.05865,218.16535 c 5.19733,4.33333 15.67867,-13.36 10.63867,-17.99734 -5.03867,-4.63599 -8.416,3.10667 -8.416,3.10667 l -0.90934,5.55067 -1.37066,7.472 -0.35734,1.676 0.41467,0.192" /><path
     id="path160"
     style="fill:none;stroke:#232238;stroke-width:1.37792;stroke-linecap:round;stroke-linejoin:round;stroke-miterlimit:10;stroke-dasharray:none;stroke-opacity:1"
     d="m 675.57065,206.10668 c 0,0 -2.17333,-4.49867 -6.91067,3.548" /><path
     id="path162"
     style="fill:#232238;fill-opacity:1;fill-rule:nonzero;stroke:none;stroke-width:0.133333"
     d="m 633.10665,200.37335 c 0,1.48133 -1.19867,2.68 -2.67867,2.68 -1.48133,0 -2.68,-1.19867 -2.68,-2.68 0,-1.48 1.19867,-2.67867 2.68,-2.67867 1.48,0 2.67867,1.19867 2.67867,2.67867" /><path
     id="path164"
     style="fill:#232238;fill-opacity:1;fill-rule:nonzero;stroke:none;stroke-width:0.133333"
     d="m 657.91998,200.37335 c 0,1.48133 -1.20133,2.68 -2.68,2.68 -1.48,0 -2.68,-1.19867 -2.68,-2.68 0,-1.48 1.2,-2.67867 2.68,-2.67867 1.47867,0 2.68,1.19867 2.68,2.67867" /><path
     id="path166"
     style="fill:none;stroke:#232238;stroke-width:1.35547;stroke-linecap:round;stroke-linejoin:round;stroke-miterlimit:10;stroke-dasharray:none;stroke-opacity:1"
     d="m 641.49065,204.45201 0.003,5.376 c 10e-4,0.912 0.81066,1.59467 1.67466,1.41334 l 1.924,-0.404" /><path
     id="path168"
     style="fill:#232238;fill-opacity:1;fill-rule:nonzero;stroke:none;stroke-width:0.133333"
     d="m 646.98665,190.54268 15.46267,3.99467 c 0,0 -0.70134,-4.33733 -7.028,-5.91333 -6.32667,-1.576 -8.43467,1.91866 -8.43467,1.91866" /><path
     id="path170"
     style="fill:#232238;fill-opacity:1;fill-rule:nonzero;stroke:none;stroke-width:0.133333"
     d="m 637.37732,190.54268 -15.46534,3.99467 c 0,0 0.70267,-4.33733 7.028,-5.91333 6.328,-1.576 8.43734,1.91866 8.43734,1.91866" /><path
     id="path172"
     style="fill:#232238;fill-opacity:1;fill-rule:nonzero;stroke:none;stroke-width:0.133333"
     d="m 641.55065,219.12001 c 0.568,-0.368 0.984,-0.94266 1.16133,-1.59733 0.36134,-1.33333 0.51734,-3.46133 -2.05066,-3.70267 -3.76934,-0.35333 -10.08267,6.89867 -15.60667,2.74267 0,0 5.28,9.80533 16.496,2.55733" /><path
     id="path174"
     style="fill:#232238;fill-opacity:1;fill-rule:nonzero;stroke:none;stroke-width:0.133333"
     d="m 643.65332,219.12001 c -0.56534,-0.368 -0.97867,-0.94266 -1.156,-1.59733 -0.36,-1.33333 -0.51467,-3.46133 2.04133,-3.70267 3.75333,-0.35333 10.04,6.89867 15.54,2.74267 0,0 -5.25733,9.80533 -16.42533,2.55733" /><path
     id="path176"
     style="fill:#232238;fill-opacity:1;fill-rule:nonzero;stroke:none;stroke-width:0.133333"
     d="m 669.58532,156.63335 c -9.50267,-6.72133 -27.59067,-0.468 -37.59867,3.892 0.29067,-3.16933 -1.67067,-5.18667 -1.67067,-5.18667 -17.18933,5.27334 -15.02933,15.06267 -13.828,18.18667 -3.37066,3.544 -8.00133,12.38533 0.78667,30.92666 0,0 4.908,-15.83599 2.82,-28.43599 8.14667,3.68666 30.264,12.51466 44.32,6.89733 0.48267,10.81733 4.67467,21.53866 4.67467,21.53866 5.31733,-13.60133 4.572,-21.78799 2.456,-26.59999 2.42533,-2.89467 9.56133,-13.06934 -1.96,-21.21867" /><path
     id="path178"
     style="fill:#3163b7;fill-opacity:1;fill-rule:nonzero;stroke:none;stroke-width:0.133333"
     d="m 668.37998,578.71721 h 54.056 C 702.47065,493.40267 686.80665,434.42934 686.80665,434.42934 l -2.47333,-25.42266 h -41.04267 l 1.856,89.30533 23.23333,80.4052" /><path
     id="path180"
     style="fill:#3163b7;fill-opacity:1;fill-rule:nonzero;stroke:none;stroke-width:0.133333"
     d="m 645.14665,498.31201 -1.856,-89.30533 h -43.07467 c -32.23999,48.248 -13.99333,133.98813 -13.99333,133.98813 l 4.91334,35.7224 h 54.01066 v -80.4052" /><path
     id="path182"
     style="fill:none;stroke:#315694;stroke-width:1.82448;stroke-linecap:butt;stroke-linejoin:miter;stroke-miterlimit:10;stroke-dasharray:none;stroke-opacity:1"
     d="m 645.14665,498.31201 v -25.30667 l 12.204,-18.908" /><path
     id="path184"
     style="fill:#337cc3;fill-opacity:1;fill-rule:nonzero;stroke:none;stroke-width:0.133333"
     d="m 479.21465,549.05214 c 0,0 14.524,-72.08147 23.06934,-91.73213 0.776,-1.784 3.35733,-1.55067 3.87333,0.324 2.05867,7.49067 4.77067,29.56133 3.56,94.52106 l 0.028,26.55214 h 50.97467 l 7.51066,-63.90254 c 0,0 11.356,-89.06533 -25.63066,-139.64799 h -74.13734 c 0,0 -37.80266,54.98933 -42.78266,130.93333 -1.108,16.89866 -3.01733,42.7052 -5.31733,72.6172 h 52.52266 l 6.32933,-29.66507" /><path
     id="path186"
     style="fill:none;stroke:#31658e;stroke-width:1.94407;stroke-linecap:butt;stroke-linejoin:miter;stroke-miterlimit:10;stroke-dasharray:none;stroke-opacity:1"
     d="m 489.57999,450.55068 17.36266,7.09333" /><path
     id="path188"
     style="fill:#efb91d;fill-opacity:1;fill-rule:nonzero;stroke:none;stroke-width:0.133333"
     d="m 489.37865,234.58401 -35.65466,9.80267 14.73866,121.708 h 74.81334 l 14.75866,-122.24133 -39.524,-9.804 -29.132,0.53466" /><path
     id="path190"
     style="fill:#232238;fill-opacity:1;fill-rule:nonzero;stroke:none;stroke-width:0.133333"
     d="m 542.59999,375.16668 h -74.13734 v -9.072 h 74.13734 v 9.072" /><path
     id="path192"
     style="fill:#f08b5d;fill-opacity:1;fill-rule:nonzero;stroke:none;stroke-width:0.133333"
     d="m 523.83999,322.23868 c 0,0 30.55333,-12.25867 46.92,-3.70667 l 1.54266,19.67067 -49.888,6.27066 1.42534,-22.23466" /><path
     id="path194"
     style="fill:#efb91d;fill-opacity:1;fill-rule:nonzero;stroke:none;stroke-width:0.133333"
     d="m 589.12132,361.89334 c 0,0 -49.60267,5.95734 -89.79733,-15.13866 l 34.048,-10.31334 42.06666,-7.07599 13.68267,32.52799" /><path
     id="path196"
     style="fill:#efb91d;fill-opacity:1;fill-rule:nonzero;stroke:none;stroke-width:0.133333"
     d="m 555.62132,243.48001 c 0,0 19.26533,1.232 31.54533,39.37867 13.048,40.532 13.99467,72.44533 4.93867,77.796 -9.05467,5.352 -20.29067,-6.46134 -31.816,-39.10267 -11.52533,-32.64133 -16.84267,-50.21866 -16.84267,-50.21866 l 12.17467,-27.85334" /><path
     id="path198"
     style="fill:none;stroke:#d8a51f;stroke-width:1.94407;stroke-linecap:butt;stroke-linejoin:miter;stroke-miterlimit:10;stroke-dasharray:none;stroke-opacity:1"
     d="m 551.66532,296.60001 2.96933,-24.58933" /><path
     id="path200"
     style="fill:#efb91d;fill-opacity:1;fill-rule:nonzero;stroke:none;stroke-width:0.133333"
     d="m 453.72399,244.38668 c 0,0 -19.26533,1.23333 -31.54533,39.37867 -13.04667,40.53333 -13.99467,72.44533 -4.93867,77.79733 9.056,5.352 21.648,-6.464 33.17333,-39.104 11.52534,-32.64133 15.48534,-50.21867 15.48534,-50.21867 l -12.17467,-27.85333" /><path
     id="path202"
     style="fill:none;stroke:#d8a51f;stroke-width:1.94407;stroke-linecap:butt;stroke-linejoin:miter;stroke-miterlimit:10;stroke-dasharray:none;stroke-opacity:1"
     d="m 459.76132,294.24801 -2.67466,-22.23733" /><path
     id="path204"
     style="fill:#f08b5d;fill-opacity:1;fill-rule:nonzero;stroke:none;stroke-width:0.133333"
     d="m 469.69865,322.38801 c 0,0 -13.83866,-14.34 -36.69333,-21.80266 -0.99733,-0.32534 -2.10533,-0.0867 -2.89333,0.60666 v 0 c -1.60533,1.416 -1.232,4.01334 0.70667,4.92 l 13.77066,6.43467 -18.07466,1.204 c -2.97734,0.19867 -5.272,2.852 -4.85334,5.80667 0.368,2.60266 2.13067,5.99866 7.144,9.94133 l 40.89333,-7.11067" /><path
     id="path206"
     style="fill:#efb91d;fill-opacity:1;fill-rule:nonzero;stroke:none;stroke-width:0.133333"
     d="m 428.80532,329.49868 c 0,0 65.508,-12.92267 96.58267,-12.79333 l 12.40133,30.65866 c 0,0 -96.96133,24.30933 -120.54933,14.19867 l 11.56533,-32.064" /><path
     id="path208"
     style="fill:none;stroke:#d8a51f;stroke-width:1.94407;stroke-linecap:butt;stroke-linejoin:miter;stroke-miterlimit:10;stroke-dasharray:none;stroke-opacity:1"
     d="m 469.69865,322.38801 c 0,0 41.176,-6.42266 55.68934,-5.68266 l 1.752,4.33066" /><path
     id="path210"
     style="fill:none;stroke:#d8a51f;stroke-width:1.94407;stroke-linecap:butt;stroke-linejoin:miter;stroke-miterlimit:10;stroke-dasharray:none;stroke-opacity:1"
     d="m 467.87065,361.21601 69.91867,-13.852 -10.64933,-26.328" /><path
     id="path212"
     style="fill:#232238;fill-opacity:1;fill-rule:nonzero;stroke:none;stroke-width:0.133333"
     d="m 471.45732,182.01202 -14.62933,19.09066 c 0,0 52.612,40.41333 95.884,-2.85733 l -15.436,-18.836 -65.81867,2.60267" /><path
     id="path214"
     style="fill:#f08b5d;fill-opacity:1;fill-rule:nonzero;stroke:none;stroke-width:0.133333"
     d="m 518.43199,233.10668 -3.69467,-29.316 c 0,0 -3.81333,3.88667 -8.87467,4.828 -5.06133,0.94 -9.96133,-2.01867 -10.024,-2.05467 -0.0627,-0.036 -4.132,-3.42533 -4.132,-3.42533 l -2.23333,30.37467 c 0,0.36266 -0.0387,0.71866 -0.0947,1.07066 l 16.02134,34.828 13.11066,-35.36266 c -0.0467,-0.30934 -0.0787,-0.624 -0.0787,-0.94267" /><path
     id="path216"
     style="fill:#232238;fill-opacity:1;fill-rule:nonzero;stroke:none;stroke-width:0.133333"
     d="m 489.37865,204.29201 c 0,0 7.74667,16.36267 16.972,14.22 9.63067,-2.23733 9.58667,-16.292 9.58667,-16.292 l -26.55867,2.072" /><path
     id="path218"
     style="fill:#232238;fill-opacity:1;fill-rule:nonzero;stroke:none;stroke-width:0.133333"
     d="m 536.17865,161.29868 c 0,18.32 -14.256,33.172 -31.84266,33.172 -17.58534,0 -31.84134,-14.852 -31.84134,-33.172 0,-18.32 14.256,-30.784 31.84134,-30.784 17.58666,0 31.84266,12.464 31.84266,30.784" /><path
     id="path220"
     style="fill:#f08b5d;fill-opacity:1;fill-rule:nonzero;stroke:none;stroke-width:0.133333"
     d="m 530.64932,163.00535 c 0,11.42133 -1.58933,21.27733 -3.17467,28.272 -1.55333,6.84933 -5.924,11.63466 -12.09866,15.488 l -1.12534,0.70133 c -6.53333,4.076 -14.97733,4.17067 -21.612,0.24267 v 0 c -6.69066,-3.96134 -11.376,-9.184 -12.81733,-16.53333 -2.62267,-13.36667 -2.90933,-28.17067 -2.90933,-28.17067 0,0 -2.49467,-28.832 26.48533,-28.272 28.98133,0.56 27.252,28.272 27.252,28.272" /><path
     id="path222"
     style="fill:#f08b5d;fill-opacity:1;fill-rule:nonzero;stroke:none;stroke-width:0.133333"
     d="m 480.07199,190.08402 c -5.10534,4.40933 -15.85733,-13.05067 -10.912,-17.75734 4.944,-4.708 8.44133,2.952 8.44133,2.952 l 1.00267,5.51734 1.49333,7.42533 0.38533,1.66533 -0.41066,0.19734" /><path
     id="path224"
     style="fill:none;stroke:#232238;stroke-width:1.37377;stroke-linecap:round;stroke-linejoin:round;stroke-miterlimit:10;stroke-dasharray:none;stroke-opacity:1"
     d="m 471.38132,178.20935 c 0,0 2.088,-4.52133 6.94933,3.41867" /><path
     id="path226"
     style="fill:#f08b5d;fill-opacity:1;fill-rule:nonzero;stroke:none;stroke-width:0.133333"
     d="m 527.45999,190.18535 c 5.18133,4.32133 15.632,-13.32 10.60666,-17.94133 -5.024,-4.62134 -8.38933,3.09733 -8.38933,3.09733 l -0.908,5.53333 -1.36533,7.44934 -0.356,1.672 0.412,0.18933" /><path
     id="path228"
     style="fill:none;stroke:#232238;stroke-width:1.37377;stroke-linecap:round;stroke-linejoin:round;stroke-miterlimit:10;stroke-dasharray:none;stroke-opacity:1"
     d="m 535.94665,178.16535 c 0,0 -2.16666,-4.48667 -6.89066,3.536" /><path
     id="path230"
     style="fill:#232238;fill-opacity:1;fill-rule:nonzero;stroke:none;stroke-width:0.133333"
     d="m 531.45732,155.95068 c -1.73467,-8.648 -7.70533,-13.81733 -10.32,-15.71866 -3.248,-3.21334 -7.552,-5.74 -13.25733,-6.476 0,0 -18.096,-4.08134 -25.588,9.60533 -2.58267,2.428 -5.708,6.47867 -6.93334,12.58933 -2.24,11.17067 1.92534,16.03467 1.92534,16.03467 0,0 7.11733,-9.624 8.908,-21.428 5.48266,4.53467 16.592,10.21067 37.676,9.92267 3.29333,6.94933 7.268,11.812 7.268,11.812 0,0 2.56133,-5.17067 0.32133,-16.34134" /><path
     id="path232"
     style="fill:#232238;fill-opacity:1;fill-rule:nonzero;stroke:none;stroke-width:0.133333"
     d="m 493.61065,174.20402 c 0,1.47466 -1.196,2.67066 -2.672,2.67066 -1.47466,0 -2.67066,-1.196 -2.67066,-2.67066 0,-1.476 1.196,-2.672 2.67066,-2.672 1.476,0 2.672,1.196 2.672,2.672" /><path
     id="path234"
     style="fill:#232238;fill-opacity:1;fill-rule:nonzero;stroke:none;stroke-width:0.133333"
     d="m 518.34799,174.20402 c 0,1.47466 -1.19467,2.67066 -2.672,2.67066 -1.47467,0 -2.67067,-1.196 -2.67067,-2.67066 0,-1.476 1.196,-2.672 2.67067,-2.672 1.47733,0 2.672,1.196 2.672,2.672" /><path
     id="path236"
     style="fill:none;stroke:#232238;stroke-width:1.35139;stroke-linecap:round;stroke-linejoin:round;stroke-miterlimit:10;stroke-dasharray:none;stroke-opacity:1"
     d="m 501.33065,180.02402 0.004,3.60533 c 10e-4,0.90933 0.80934,1.59067 1.67067,1.40933 l 1.91733,-0.40266" /><path
     id="path238"
     style="fill:#232238;fill-opacity:1;fill-rule:nonzero;stroke:none;stroke-width:0.133333"
     d="m 514.48532,161.84002 c 0,0 -7.824,-0.64134 -7.90267,2.544 0,0 0.007,2.156 6.832,2.584 6.82534,0.42666 8.6,-0.0733 9.224,-2.09867 0.624,-2.02533 -4.484,-3.008 -8.15333,-3.02933" /><path
     id="path240"
     style="fill:#232238;fill-opacity:1;fill-rule:nonzero;stroke:none;stroke-width:0.133333"
     d="m 491.09199,161.84002 c 0,0 7.82266,-0.64134 7.90266,2.544 0,0 -0.007,2.156 -6.83333,2.584 -6.82533,0.42666 -8.6,-0.0733 -9.224,-2.09867 -0.624,-2.02533 4.48533,-3.008 8.15467,-3.02933" /><path
     id="path242"
     style="fill:none;stroke:#232238;stroke-width:1.35139;stroke-linecap:round;stroke-linejoin:round;stroke-miterlimit:10;stroke-dasharray:none;stroke-opacity:1"
     d="m 510.38532,187.81868 c 0,0 -2.80933,4.51334 -10.048,3.23734" /><path
     id="path244"
     style="fill:none;stroke:#232238;stroke-width:1.31294;stroke-linecap:round;stroke-linejoin:round;stroke-miterlimit:10;stroke-dasharray:none;stroke-opacity:1"
     d="M 146.75066,578.71721 H 833.79331" /></svg>
