<?xml version="1.0" encoding="UTF-8" standalone="no"?>
<svg
   viewBox="0 0 4000 2666.6667"
   height="2666.6667"
   width="4000"
   xml:space="preserve"
   id="svg2"
   version="1.1"
   sodipodi:docname="hero-page-img.svg"
   inkscape:version="1.2.1 (9c6d41e410, 2022-07-14)"
   xmlns:inkscape="http://www.inkscape.org/namespaces/inkscape"
   xmlns:sodipodi="http://sodipodi.sourceforge.net/DTD/sodipodi-0.dtd"
   xmlns="http://www.w3.org/2000/svg"
   xmlns:svg="http://www.w3.org/2000/svg"
   xmlns:rdf="http://www.w3.org/1999/02/22-rdf-syntax-ns#"
   xmlns:cc="http://creativecommons.org/ns#"
   xmlns:dc="http://purl.org/dc/elements/1.1/"><sodipodi:namedview
     id="namedview249"
     pagecolor="#ffffff"
     bordercolor="#000000"
     borderopacity="0.25"
     inkscape:showpageshadow="2"
     inkscape:pageopacity="0.0"
     inkscape:pagecheckerboard="0"
     inkscape:deskcolor="#d1d1d1"
     showgrid="false"
     inkscape:zoom="0.21584434"
     inkscape:cx="1420.0048"
     inkscape:cy="1438.5367"
     inkscape:window-width="1920"
     inkscape:window-height="1001"
     inkscape:window-x="-9"
     inkscape:window-y="-9"
     inkscape:window-maximized="1"
     inkscape:current-layer="svg2" /><metadata
     id="metadata8"><rdf:RDF><cc:Work
         rdf:about=""><dc:format>image/svg+xml</dc:format><dc:type
           rdf:resource="http://purl.org/dc/dcmitype/StillImage" /></cc:Work></rdf:RDF></metadata><defs
     id="defs6"><clipPath
       id="clipPath38"
       clipPathUnits="userSpaceOnUse"><path
         id="path36"
         d="m 5415.26,2124 c 0,0 -2430.37,238 -2960.39,2442.2 0,0 1530.13,-42.8 1925.21,-553.3 0,0 -821.75,607.1 -948.17,1897.2 0,0 1138.54,-648.7 1359.04,-1291.2 0,0 -442.48,467 -252.84,1911.3 L 5601.52,4526.1 5415.26,2124" /></clipPath><clipPath
       id="clipPath168"
       clipPathUnits="userSpaceOnUse"><path
         id="path166"
         d="M 8336.23,7543.5 H 5996.24 c -53.9,0 -97.58,43.7 -97.58,97.6 v 726.4 c 0,53.9 43.68,97.5 97.58,97.5 h 2339.99 c 53.9,0 97.59,-43.6 97.59,-97.5 v -726.4 c 0,-53.9 -43.69,-97.6 -97.59,-97.6" /></clipPath><clipPath
       id="clipPath180"
       clipPathUnits="userSpaceOnUse"><path
         id="path178"
         d="M 8029.85,2124 H 6282.83 c -158.28,0 -286.59,128.3 -286.59,286.6 V 7543.5 H 8316.45 V 2410.6 c 0,-158.3 -128.32,-286.6 -286.6,-286.6" /></clipPath><clipPath
       id="clipPath230"
       clipPathUnits="userSpaceOnUse"><path
         id="path228"
         d="m 14310.5,7959 c -417.2,379.2 -1218.8,710.1 -1145.8,1386.6 -594.9,0 -1413.2,0 -2008,0 73.3,-675.9 -729.9,-1008.5 -1145.9,-1386.7 -414.73,-322.4 -657.31,-818.3 -657.31,-1343.7 V 2531.7 c 0,-225.2 182.53,-407.7 407.69,-407.7 276.12,6.5 891.42,3.6 1483.82,0.8 532,-2.5 1045.6,-5 1278.4,-0.8 h 2036.7 c 225.2,0 407.7,182.5 407.7,407.7 v 4083.5 c 0,525.4 -242.6,1021.3 -657.3,1343.8" /></clipPath><clipPath
       id="clipPath252"
       clipPathUnits="userSpaceOnUse"><path
         id="path250"
         d="m 13201,9345.6 h -2083 c -155.8,0 -282.1,126.3 -282.1,282.1 v 598.5 c 0,155.8 126.3,282.1 282.1,282.1 h 2083 c 155.8,0 282.1,-126.3 282.1,-282.1 -33.5,-261.3 139.1,-871.7 -282.1,-880.6" /></clipPath><clipPath
       id="clipPath294"
       clipPathUnits="userSpaceOnUse"><path
         id="path292"
         d="m 22612.6,3242.3 82.1,-696.4 c 0,0 148.3,-62.2 305.6,-60.7 157.2,1.6 163.6,50.4 163.6,50.4 l -19.8,716.5 -531.5,-9.8" /></clipPath><clipPath
       id="clipPath314"
       clipPathUnits="userSpaceOnUse"><path
         id="path312"
         d="m 24995.6,3402.5 489.7,-502 c 0,0 155.6,41.2 279.2,138.3 123.7,97.1 99,139.7 99,139.7 l -452.6,555.8 -415.3,-331.8" /></clipPath><clipPath
       id="clipPath334"
       clipPathUnits="userSpaceOnUse"><path
         id="path332"
         d="m 22770.3,12192.2 -48.1,396.4 c -188.2,-13.2 -416.5,-21.7 -411.8,229.4 l 95.9,929.3 960.1,-0.2 c -23.5,-387.8 7,-1168 51.6,-1554.9 h -647.7" /></clipPath><clipPath
       id="clipPath390"
       clipPathUnits="userSpaceOnUse"><path
         id="path388"
         d="m 21741.2,11770.5 -958.7,-1675.7 -1232.8,1371.2 -564.2,-391.2 1187.8,-1813.6 c 129.4,-197.5 349.7,-316.6 585.9,-316.6 409.5,-35.8 613.2,229.8 842.3,517.4 -65.4,-311.1 -519.5,-2504.2 -489.2,-3156.2 32.2,-691.5 1200.1,-1165.1 1200.1,-1165.1 l 149.8,7051.5 c 0,0 -614.6,-212.7 -721,-421.7" /></clipPath><clipPath
       id="clipPath442"
       clipPathUnits="userSpaceOnUse"><path
         id="path440"
         d="m 18437.7,12246 1006.9,-1455.5 -1157.8,-15.6 -995.6,1446.7 1146.5,24.4" /></clipPath><clipPath
       id="clipPath466"
       clipPathUnits="userSpaceOnUse"><path
         id="path464"
         d="m 22293.2,10547.4 c 0,0 -270.1,171.5 -326.4,174.6 -56.3,3.1 -475.4,-86.4 -472.3,-174.6 3.1,-88.1 222.1,-519.8 294,-513.5 71.9,6.2 414.6,59.7 414.6,59.7 l 90.1,453.8" /></clipPath></defs><g
     id="g1066"
     transform="matrix(1.1661406,0,0,1.1661406,-388.50744,-252.55797)"><g
       transform="matrix(0.22013767,0,0,-0.22013767,92.659367,2712.9964)"
       id="g22"><path
         id="path24"
         style="fill:#e3eefe;fill-opacity:1;fill-rule:nonzero;stroke:none"
         d="M 1545.14,1250.71 H 16300 L 15231.8,7403.12 C 15045.9,8474.05 14009.9,9178.09 12945.7,8956.7 L 3694.64,7032.08 C 1277.75,6623.1 1894.63,2965.95 1545.14,1250.71" /></g><path
       id="path26"
       style="fill:#b9d2ff;fill-opacity:1;fill-rule:nonzero;stroke:none;stroke-width:0.129627"
       d="m 742.27835,1982.1467 -48.59326,-91.5814 -2.67939,-550.5646 c -0.0739,-15.1534 12.19401,-27.4809 27.35129,-27.4809 h 23.92136 v 669.6269" /><path
       id="path28"
       style="fill:#b9d2ff;fill-opacity:1;fill-rule:nonzero;stroke:none;stroke-width:0.129627"
       d="m 794.623,2437.6688 h -98.27408 l -0.11277,-23.1385 c 36.63128,12.3405 67.11046,18.4071 84.02289,21.1552 4.56417,1.2962 9.3837,1.9833 14.36396,1.9833" /><path
       id="path30"
       style="fill:#a7bd37;fill-opacity:1;fill-rule:nonzero;stroke:none;stroke-width:0.129627"
       d="m 794.623,2437.6688 c 0,0 -315.04145,-30.8513 -383.74632,-316.575 0,0 198.34608,5.5481 249.5591,71.7226 0,0 -106.52095,-78.6965 -122.90839,-245.9282 0,0 147.58547,84.089 176.16821,167.3743 0,0 -57.35733,-60.5358 -32.77487,-247.756 l 137.84659,259.7854 -24.14432,311.3769" /><g
       id="g32"
       transform="matrix(0.12962695,0,0,-0.12962695,92.659367,2712.9964)"><g
         clip-path="url(#clipPath38)"
         id="g34"><path
           id="path40"
           style="fill:#7f9526;fill-opacity:1;fill-rule:nonzero;stroke:none"
           d="m 5304.45,2139.3 c -134.14,21.8 -378.84,70.6 -672.09,171.4 290.31,514.7 224.45,2867.5 192.28,3679.5 l 186.81,-352.1 V 2527.8 c 0,-184.6 123.85,-340.3 293,-388.5" /></g></g><path
       id="path42"
       style="fill:#d1daf7;fill-opacity:1;fill-rule:nonzero;stroke:none;stroke-width:0.129627"
       d="M 1894.2277,2437.6688 H 794.623 c -28.9094,0 -52.34465,-23.4366 -52.34465,-52.3434 V 1066.7601 c 0,-28.9068 23.43525,-52.3434 52.34465,-52.3434 h 1099.6047 c 28.9198,0 52.3433,23.4366 52.3433,52.3434 v 1318.5653 c 0,28.9068 -23.4235,52.3434 -52.3433,52.3434" /><path
       id="path44"
       style="fill:#ffffff;fill-opacity:1;fill-rule:nonzero;stroke:none;stroke-width:0.129627"
       d="M 954.34544,1266.58 H 840.40595 c -21.54141,0 -39.00475,-17.4607 -39.00475,-39.0047 0,-21.544 17.46334,-39.0048 39.00475,-39.0048 h 113.93949 v 78.0095" /><path
       id="path46"
       style="fill:#a4c4ff;fill-opacity:1;fill-rule:nonzero;stroke:none;stroke-width:0.129627"
       d="m 954.34544,1188.5705 h 113.93946 c 21.5414,0 39.0048,17.4608 39.0048,39.0048 0,21.544 -17.4634,39.0047 -39.0048,39.0047 H 954.34544 v -78.0095" /><path
       id="path48"
       style="fill:#ffffff;fill-opacity:1;fill-rule:nonzero;stroke:none;stroke-width:0.129627"
       d="m 954.14193,1409.0011 h -113.9382 c -21.54141,0 -39.00475,-17.4607 -39.00475,-39.0047 0,-21.544 17.46334,-39.0048 39.00475,-39.0048 h 113.9382 v 78.0095" /><path
       id="path50"
       style="fill:#a4c4ff;fill-opacity:1;fill-rule:nonzero;stroke:none;stroke-width:0.129627"
       d="m 954.14193,1330.9916 h 113.93947 c 21.5414,0 39.0048,17.4608 39.0048,39.0048 0,21.544 -17.4634,39.0047 -39.0048,39.0047 H 954.14193 v -78.0095" /><path
       id="path52"
       style="fill:#ffffff;fill-opacity:1;fill-rule:nonzero;stroke:none;stroke-width:0.129627"
       d="m 953.93971,1551.4223 h -113.9395 c -21.5414,0 -39.00474,-17.4608 -39.00474,-39.0048 0,-21.544 17.46334,-39.0047 39.00474,-39.0047 h 113.9395 v 78.0095" /><path
       id="path54"
       style="fill:#a4c4ff;fill-opacity:1;fill-rule:nonzero;stroke:none;stroke-width:0.129627"
       d="m 953.93971,1473.4128 h 113.93819 c 21.5427,0 39.0061,17.4607 39.0061,39.0047 0,21.544 -17.4634,39.0048 -39.0061,39.0048 H 953.93971 v -78.0095" /><path
       id="path56"
       style="fill:#ffffff;fill-opacity:1;fill-rule:nonzero;stroke:none;stroke-width:0.129627"
       d="M 953.7362,1693.8434 H 839.798 c -21.54271,0 -39.00475,-17.4737 -39.00475,-39.0048 0,-21.544 17.46334,-39.0047 39.00475,-39.0047 h 113.9382 v 78.0095" /><path
       id="path58"
       style="fill:#a4c4ff;fill-opacity:1;fill-rule:nonzero;stroke:none;stroke-width:0.129627"
       d="m 953.7362,1615.8339 h 113.9395 c 21.5414,0 39.0047,17.4607 39.0047,39.0047 0,21.5311 -17.4633,39.0048 -39.0047,39.0048 H 953.7362 v -78.0095" /><path
       id="path60"
       style="fill:#ffffff;fill-opacity:1;fill-rule:nonzero;stroke:none;stroke-width:0.129627"
       d="m 953.53398,1836.2516 h -113.9395 c -21.5414,0 -39.00475,-17.4608 -39.00475,-39.0048 0,-21.531 17.46335,-39.0047 39.00475,-39.0047 h 113.9395 v 78.0095" /><path
       id="path62"
       style="fill:#a4c4ff;fill-opacity:1;fill-rule:nonzero;stroke:none;stroke-width:0.129627"
       d="m 953.53398,1758.2421 h 113.93822 c 21.5427,0 39.006,17.4737 39.0047,39.0047 0,21.544 -17.462,39.0048 -39.0047,39.0048 H 953.53398 v -78.0095" /><path
       id="path64"
       style="fill:#ffffff;fill-opacity:1;fill-rule:nonzero;stroke:none;stroke-width:0.129627"
       d="m 953.33046,1978.6727 h -113.9382 c -21.5427,0 -39.00475,-17.4608 -39.00475,-39.0048 0,-21.544 17.46205,-39.0047 39.00475,-39.0047 h 113.9382 v 78.0095" /><path
       id="path66"
       style="fill:#a4c4ff;fill-opacity:1;fill-rule:nonzero;stroke:none;stroke-width:0.129627"
       d="M 953.33046,1900.6632 H 1067.27 c 21.5414,0 39.0047,17.4607 39.0047,39.0047 0,21.544 -17.4633,39.0048 -39.0047,39.0048 H 953.33046 v -78.0095" /><path
       id="path68"
       style="fill:#ffffff;fill-opacity:1;fill-rule:nonzero;stroke:none;stroke-width:0.129627"
       d="m 953.12825,2121.0938 h -113.9395 c -21.54141,0 -39.00475,-17.4607 -39.00475,-39.0047 0,-21.544 17.46334,-39.0048 39.00475,-39.0048 h 113.9395 v 78.0095" /><path
       id="path70"
       style="fill:#a4c4ff;fill-opacity:1;fill-rule:nonzero;stroke:none;stroke-width:0.129627"
       d="m 953.12825,2043.0843 h 113.93815 c 21.5427,0 39.0048,17.4608 39.0048,39.0048 0,21.544 -17.4621,39.0047 -39.0048,39.0047 H 953.12825 v -78.0095" /><path
       id="path72"
       style="fill:#ffffff;fill-opacity:1;fill-rule:nonzero;stroke:none;stroke-width:0.129627"
       d="m 952.92473,2263.515 h -113.9382 c -21.5427,0 -39.00604,-17.4608 -39.00604,-39.0048 0,-21.544 17.46334,-39.0047 39.00604,-39.0047 h 113.9382 v 78.0095" /><path
       id="path74"
       style="fill:#a4c4ff;fill-opacity:1;fill-rule:nonzero;stroke:none;stroke-width:0.129627"
       d="m 952.92473,2185.5055 h 113.93947 c 21.5414,0 39.0048,17.4607 39.0048,39.0047 0,21.544 -17.4634,39.0048 -39.0048,39.0048 H 952.92473 v -78.0095" /><path
       id="path76"
       style="fill:#ffffff;fill-opacity:1;fill-rule:nonzero;stroke:none;stroke-width:0.129627"
       d="m 1345.1383,1266.58 h -113.9382 c -21.5427,0 -39.0061,-17.4607 -39.0061,-39.0047 0,-21.544 17.4634,-39.0048 39.0061,-39.0048 h 113.9382 v 78.0095" /><path
       id="path78"
       style="fill:#a4c4ff;fill-opacity:1;fill-rule:nonzero;stroke:none;stroke-width:0.129627"
       d="m 1345.1383,1188.5705 h 113.9447 c 21.531,0 39.0047,17.4608 39.0047,39.0048 0,21.544 -17.4737,39.0047 -39.0047,39.0047 h -113.9447 v -78.0095" /><path
       id="path80"
       style="fill:#ffffff;fill-opacity:1;fill-rule:nonzero;stroke:none;stroke-width:0.129627"
       d="m 1344.9361,1409.0011 h -113.9395 c -21.5414,0 -39.0048,-17.4607 -39.0048,-39.0047 0,-21.544 17.4634,-39.0048 39.0048,-39.0048 h 113.9395 v 78.0095" /><path
       id="path82"
       style="fill:#a4c4ff;fill-opacity:1;fill-rule:nonzero;stroke:none;stroke-width:0.129627"
       d="m 1344.9361,1330.9916 h 113.9395 c 21.544,0 39.0047,17.4608 39.0047,39.0048 0,21.544 -17.4607,39.0047 -39.0047,39.0047 h -113.9395 v -78.0095" /><path
       id="path84"
       style="fill:#ffffff;fill-opacity:1;fill-rule:nonzero;stroke:none;stroke-width:0.129627"
       d="m 1344.7326,1551.4223 h -113.9382 c -21.5427,0 -39.0061,-17.4608 -39.0061,-39.0048 0,-21.544 17.4634,-39.0047 39.0061,-39.0047 h 113.9382 v 78.0095" /><path
       id="path86"
       style="fill:#a4c4ff;fill-opacity:1;fill-rule:nonzero;stroke:none;stroke-width:0.129627"
       d="m 1344.7326,1473.4128 h 113.9356 c 21.544,0 39.0047,17.4607 39.0047,39.0047 0,21.544 -17.4607,39.0048 -39.0047,39.0048 h -113.9356 v -78.0095" /><path
       id="path88"
       style="fill:#ffffff;fill-opacity:1;fill-rule:nonzero;stroke:none;stroke-width:0.129627"
       d="m 1344.529,1693.8434 h -113.9382 c -21.5427,0 -39.006,-17.4737 -39.0047,-39.0048 0,-21.544 17.4633,-39.0047 39.0047,-39.0047 h 113.9382 v 78.0095" /><path
       id="path90"
       style="fill:#a4c4ff;fill-opacity:1;fill-rule:nonzero;stroke:none;stroke-width:0.129627"
       d="m 1344.529,1615.8339 h 113.9447 c 21.5311,0 39.0048,17.4607 39.0048,39.0047 0,21.5311 -17.4737,39.0048 -39.0048,39.0048 H 1344.529 v -78.0095" /><path
       id="path92"
       style="fill:#ffffff;fill-opacity:1;fill-rule:nonzero;stroke:none;stroke-width:0.129627"
       d="m 1344.3255,1836.2516 h -113.9382 c -21.5414,0 -39.0047,-17.4608 -39.0047,-39.0048 0,-21.531 17.4633,-39.0047 39.0047,-39.0047 h 113.9382 v 78.0095" /><path
       id="path94"
       style="fill:#a4c4ff;fill-opacity:1;fill-rule:nonzero;stroke:none;stroke-width:0.129627"
       d="m 1344.3255,1758.2421 h 113.9408 c 21.544,0 39.0048,17.4737 39.0048,39.0047 0,21.544 -17.4608,39.0048 -39.0048,39.0048 h -113.9408 v -78.0095" /><path
       id="path96"
       style="fill:#ffffff;fill-opacity:1;fill-rule:nonzero;stroke:none;stroke-width:0.129627"
       d="m 1344.1233,1978.6727 h -113.9382 c -21.5414,0 -39.006,-17.4608 -39.006,-39.0048 0,-21.544 17.4646,-39.0047 39.006,-39.0047 h 113.9382 v 78.0095" /><path
       id="path98"
       style="fill:#a4c4ff;fill-opacity:1;fill-rule:nonzero;stroke:none;stroke-width:0.129627"
       d="m 1344.1233,1900.6632 h 113.9356 c 21.544,0 39.0048,17.4607 39.0048,39.0047 0,21.544 -17.4608,39.0048 -39.0048,39.0048 h -113.9356 v -78.0095" /><path
       id="path100"
       style="fill:#ffffff;fill-opacity:1;fill-rule:nonzero;stroke:none;stroke-width:0.129627"
       d="m 1343.9211,2121.0938 h -113.9395 c -21.5414,0 -39.0048,-17.4607 -39.0048,-39.0047 0,-21.544 17.4634,-39.0048 39.0048,-39.0048 h 113.9395 v 78.0095" /><path
       id="path102"
       style="fill:#a4c4ff;fill-opacity:1;fill-rule:nonzero;stroke:none;stroke-width:0.129627"
       d="m 1343.9211,2043.0843 h 113.9434 c 21.531,0 39.0047,17.4608 39.0047,39.0048 0,21.544 -17.4737,39.0047 -39.0047,39.0047 h -113.9434 v -78.0095" /><path
       id="path104"
       style="fill:#ffffff;fill-opacity:1;fill-rule:nonzero;stroke:none;stroke-width:0.129627"
       d="m 1343.7176,2263.515 h -113.9395 c -21.5401,0 -39.0035,-17.4608 -39.0035,-39.0048 0,-21.544 17.4634,-39.0047 39.0035,-39.0047 h 113.9395 v 78.0095" /><path
       id="path106"
       style="fill:#a4c4ff;fill-opacity:1;fill-rule:nonzero;stroke:none;stroke-width:0.129627"
       d="m 1343.7176,2185.5055 h 113.9395 c 21.544,0 39.0047,17.4607 39.0047,39.0047 0,21.544 -17.4607,39.0048 -39.0047,39.0048 h -113.9395 v -78.0095" /><path
       id="path108"
       style="fill:#ffffff;fill-opacity:1;fill-rule:nonzero;stroke:none;stroke-width:0.129627"
       d="m 1735.9272,1266.58 h -113.9291 c -21.544,0 -39.0047,-17.4607 -39.0047,-39.0047 0,-21.544 17.4607,-39.0048 39.0047,-39.0048 h 113.9291 v 78.0095" /><path
       id="path110"
       style="fill:#a4c4ff;fill-opacity:1;fill-rule:nonzero;stroke:none;stroke-width:0.129627"
       d="m 1735.9272,1188.5705 h 113.9421 c 21.544,0 39.0048,17.4608 39.0048,39.0048 0,21.544 -17.4608,39.0047 -39.0048,39.0047 h -113.9421 v -78.0095" /><path
       id="path112"
       style="fill:#ffffff;fill-opacity:1;fill-rule:nonzero;stroke:none;stroke-width:0.129627"
       d="m 1735.7328,1409.0011 h -113.9421 c -21.544,0 -39.0047,-17.4607 -39.0047,-39.0047 0,-21.544 17.4607,-39.0048 39.0047,-39.0048 h 113.9421 v 78.0095" /><path
       id="path114"
       style="fill:#a4c4ff;fill-opacity:1;fill-rule:nonzero;stroke:none;stroke-width:0.129627"
       d="m 1735.7328,1330.9916 h 113.9291 c 21.544,0 39.0048,17.4608 39.0048,39.0048 0,21.544 -17.4608,39.0047 -39.0048,39.0047 h -113.9291 v -78.0095" /><path
       id="path116"
       style="fill:#ffffff;fill-opacity:1;fill-rule:nonzero;stroke:none;stroke-width:0.129627"
       d="m 1735.5254,1551.4223 h -113.9421 c -21.544,0 -39.0047,-17.4608 -39.0047,-39.0048 0,-21.544 17.4607,-39.0047 39.0047,-39.0047 h 113.9421 v 78.0095" /><path
       id="path118"
       style="fill:#a4c4ff;fill-opacity:1;fill-rule:nonzero;stroke:none;stroke-width:0.129627"
       d="m 1735.5254,1473.4128 h 113.9421 c 21.544,0 39.0047,17.4607 39.0047,39.0047 0,21.544 -17.4607,39.0048 -39.0047,39.0048 h -113.9421 v -78.0095" /><path
       id="path120"
       style="fill:#ffffff;fill-opacity:1;fill-rule:nonzero;stroke:none;stroke-width:0.129627"
       d="m 1735.318,1693.8434 h -113.9291 c -21.544,0 -39.0048,-17.4737 -39.0048,-39.0048 0,-21.544 17.4608,-39.0047 39.0048,-39.0047 h 113.9291 v 78.0095" /><path
       id="path122"
       style="fill:#a4c4ff;fill-opacity:1;fill-rule:nonzero;stroke:none;stroke-width:0.129627"
       d="m 1735.318,1615.8339 h 113.9421 c 21.544,0 39.0047,17.4607 39.0047,39.0047 0,21.5311 -17.4607,39.0048 -39.0047,39.0048 H 1735.318 v -78.0095" /><path
       id="path124"
       style="fill:#ffffff;fill-opacity:1;fill-rule:nonzero;stroke:none;stroke-width:0.129627"
       d="m 1735.1236,1836.2516 h -113.9421 c -21.544,0 -39.0048,-17.4608 -39.0048,-39.0048 0,-21.531 17.4608,-39.0047 39.0048,-39.0047 h 113.9421 v 78.0095" /><path
       id="path126"
       style="fill:#a4c4ff;fill-opacity:1;fill-rule:nonzero;stroke:none;stroke-width:0.129627"
       d="m 1735.1236,1758.2421 h 113.9291 c 21.544,0 39.0047,17.4737 39.0047,39.0047 0,21.544 -17.4607,39.0048 -39.0047,39.0048 h -113.9291 v -78.0095" /><path
       id="path128"
       style="fill:#ffffff;fill-opacity:1;fill-rule:nonzero;stroke:none;stroke-width:0.129627"
       d="m 1734.9162,1978.6727 h -113.9421 c -21.544,0 -39.0048,-17.4608 -39.0048,-39.0048 0,-21.544 17.4608,-39.0047 39.0048,-39.0047 h 113.9421 v 78.0095" /><path
       id="path130"
       style="fill:#a4c4ff;fill-opacity:1;fill-rule:nonzero;stroke:none;stroke-width:0.129627"
       d="m 1734.9162,1900.6632 h 113.942 c 21.544,0 39.0048,17.4607 39.0048,39.0047 0,21.544 -17.4608,39.0048 -39.0048,39.0048 h -113.942 v -78.0095" /><path
       id="path132"
       style="fill:#ffffff;fill-opacity:1;fill-rule:nonzero;stroke:none;stroke-width:0.129627"
       d="m 1734.7088,2121.0938 h -113.9292 c -21.544,0 -39.0047,-17.4607 -39.0047,-39.0047 0,-21.544 17.4607,-39.0048 39.0047,-39.0048 h 113.9292 v 78.0095" /><path
       id="path134"
       style="fill:#a4c4ff;fill-opacity:1;fill-rule:nonzero;stroke:none;stroke-width:0.129627"
       d="m 1734.7088,2043.0843 h 113.942 c 21.544,0 39.0048,17.4608 39.0048,39.0048 0,21.544 -17.4608,39.0047 -39.0048,39.0047 h -113.942 v -78.0095" /><path
       id="path136"
       style="fill:#ffffff;fill-opacity:1;fill-rule:nonzero;stroke:none;stroke-width:0.129627"
       d="m 1734.5143,2263.515 h -113.9421 c -21.544,0 -39.0047,-17.4608 -39.0047,-39.0048 0,-21.544 17.4607,-39.0047 39.0047,-39.0047 h 113.9421 v 78.0095" /><path
       id="path138"
       style="fill:#a4c4ff;fill-opacity:1;fill-rule:nonzero;stroke:none;stroke-width:0.129627"
       d="m 1734.5143,2185.5055 h 113.9291 c 21.544,0 39.0048,17.4607 39.0048,39.0047 0,21.544 -17.4608,39.0048 -39.0048,39.0048 h -113.9291 v -78.0095" /><g
       transform="matrix(0.14814675,0,0,-0.14814675,92.659367,2712.9964)"
       id="g140"><path
         id="path142"
         style="fill:#ccdffe;fill-opacity:1;fill-rule:nonzero;stroke:none"
         d="m 13866.4,5708.26 c -180.6,948.22 -1217.2,2714.47 -460.8,3572.04 -86.8,-1011.56 647.6,-2381.36 804.5,-3204.9 l 2002.7,609.25 c 27.8,-85.13 56.7,-164.32 87.2,-236.07 l -2433.6,-740.32" /></g><g
       transform="matrix(0.15421589,0,0,-0.15421589,92.659367,2712.9964)"
       id="g144"><path
         id="path146"
         style="fill:#ccdffe;fill-opacity:1;fill-rule:nonzero;stroke:none"
         d="m 14536.3,1819.39 c -1764.4,30.76 -1104.4,2487.54 -1221.8,3579.68 h 2443.7 C 15641.3,4312.14 16300,1847.88 14536.3,1819.39" /></g><g
       transform="matrix(0.15360534,0,0,-0.15360534,92.659367,2712.9964)"
       id="g148"><path
         id="path150"
         style="fill:#3875ff;fill-opacity:1;fill-rule:nonzero;stroke:none"
         d="M 16300,6648.88 13705.1,5859.5 c -228.1,1197.57 -1722.6,3593.25 141.1,4195.9 1882,539.5 1978.6,-2290.05 2453.8,-3406.52" /></g><g
       transform="matrix(0.16032261,0,0,-0.16032261,92.659367,2712.9964)"
       id="g152"><path
         id="path154"
         style="fill:#a4c4ff;fill-opacity:1;fill-rule:nonzero;stroke:none"
         d="m 13124.3,5524.03 h 2598.6 C 15598.1,4362.72 16300,1750 14423.6,1717.34 c -1875.5,30.24 -1175,2650.88 -1299.3,3806.69" /></g><g
       transform="matrix(0.16556991,0,0,-0.16556991,92.659367,2712.9964)"
       id="g156"><path
         id="path158"
         style="fill:#ffffff;fill-opacity:1;fill-rule:nonzero;stroke:none"
         d="m 15517.1,5247.57 c -29.1,417.06 -614.8,580.46 -857.9,245.13 -141,299.55 -617.4,193.15 -611.8,-143.74 -8.5,-261.18 319.2,-419.33 518.8,-256.4 14.6,-68.35 43.6,-131.3 83.9,-185.55 -279.7,-468.58 90.9,-1113 642.1,-1097.81 830.4,-9.32 1007.8,1200.99 224.9,1438.37" /></g><path
       id="path160"
       style="fill:#38385c;fill-opacity:1;fill-rule:nonzero;stroke:none;stroke-width:0.129627"
       d="M 1173.2607,1735.1555 H 869.93367 c -6.9856,0 -12.649,-5.6647 -12.649,-12.6516 v -94.161 c 0,-6.9739 5.6634,-12.6386 12.649,-12.6386 h 303.32703 c 6.9856,0 12.649,5.6647 12.649,12.6386 v 94.161 c 0,6.9869 -5.6634,12.6516 -12.649,12.6516" /><g
       id="g162"
       transform="matrix(0.12962695,0,0,-0.12962695,92.659367,2712.9964)"><g
         clip-path="url(#clipPath168)"
         id="g164"><path
           id="path170"
           style="fill:#1a1a35;fill-opacity:1;fill-rule:nonzero;stroke:none"
           d="m 8556.46,7469.2 h -2745.5 v 356.3 h 2745.5 v -356.3" /></g></g><path
       id="path172"
       style="fill:#a4c4ff;fill-opacity:1;fill-rule:nonzero;stroke:none;stroke-width:0.129627"
       d="M 1133.5443,2437.6688 H 907.08475 c -20.51865,0 -37.15108,-16.6312 -37.15108,-37.1511 v -665.3622 h 300.76173 v 665.3622 c 0,20.5199 -16.6337,37.1511 -37.1511,37.1511" /><g
       id="g174"
       transform="matrix(0.12962695,0,0,-0.12962695,92.659367,2712.9964)"><g
         clip-path="url(#clipPath180)"
         id="g176"><path
           id="path182"
           style="fill:#3875ff;fill-opacity:1;fill-rule:nonzero;stroke:none"
           d="m 5722.35,6530.2 2820.59,256.5 V 2001 H 5789.19 l -66.84,4529.2" /></g></g><path
       id="path184"
       style="fill:#739bfd;fill-opacity:1;fill-rule:nonzero;stroke:none;stroke-width:0.129627"
       d="M 1132.7238,2255.0244 H 904.40148 c -6.72635,0 -12.17975,-5.4443 -12.17975,-12.172 V 1937.205 c 0,-6.7276 5.4534,-12.1719 12.17975,-12.1719 h 228.32232 c 6.7263,0 12.1797,5.4443 12.1797,12.1719 v 305.6474 c 0,6.7277 -5.4534,12.172 -12.1797,12.172" /><path
       id="path186"
       style="fill:#a4c4ff;fill-opacity:1;fill-rule:nonzero;stroke:none;stroke-width:0.129627"
       d="M 1118.8135,2002.4074 H 918.31045 v -32.7956 h 200.50305 v 32.7956" /><path
       id="path188"
       style="fill:#a4c4ff;fill-opacity:1;fill-rule:nonzero;stroke:none;stroke-width:0.129627"
       d="M 1118.8135,2054.6341 H 918.31045 v -32.7956 h 200.50305 v 32.7956" /><path
       id="path190"
       style="fill:#a4c4ff;fill-opacity:1;fill-rule:nonzero;stroke:none;stroke-width:0.129627"
       d="M 1118.8135,2106.8608 H 918.31045 v -32.7956 h 200.50305 v 32.7956" /><path
       id="path192"
       style="fill:#a4c4ff;fill-opacity:1;fill-rule:nonzero;stroke:none;stroke-width:0.129627"
       d="M 1118.8135,2159.0875 H 918.31045 v -32.7956 h 200.50305 v 32.7956" /><path
       id="path194"
       style="fill:#a4c4ff;fill-opacity:1;fill-rule:nonzero;stroke:none;stroke-width:0.129627"
       d="M 1051.2883,2211.3012 H 918.31045 v -32.7826 h 132.97785 v 32.7826" /><path
       id="path196"
       style="fill:#96b3fa;fill-opacity:1;fill-rule:nonzero;stroke:none;stroke-width:0.129627"
       d="m 1366.3997,2435.6984 c -49.9919,0 -98.3817,-8.9313 -99.604,-66.8486 V 2263.515 h 76.9219 v -78.0095 h -76.9219 v -64.4117 h 77.1254 v -78.0095 h -77.1254 v -64.4116 h 77.3276 v -78.0095 h -77.3289 v -64.4116 h 77.5311 v -78.0095 h -66.0812 c 7.0569,-19.9756 18.2152,-42.2066 35.7822,-64.3987 h 30.5025 v -32.1475 0 32.1475 h 113.9447 c 21.5311,0 39.0048,-17.4737 39.0048,-39.0048 0,-21.544 -17.4737,-39.0047 -39.0048,-39.0047 h -59.5117 c 27.6105,-24.9143 48.2342,-47.0287 63.0117,-64.5542 20.0014,-1.6722 35.6992,-18.433 35.6992,-38.8622 0,-20.7662 -16.2163,-37.7344 -36.6844,-38.9399 v -64.5283 c 20.5588,-1.1018 36.8918,-18.1219 36.8918,-38.9529 0,-1.063 -0.039,-2.1259 -0.1296,-3.1629 h 79.0465 V 2434.5059 H 1446.224 c -4.8999,-0.4278 -10.2665,-0.5834 -15.9571,-0.5834 -9.4498,0 -19.8329,0.4408 -30.6568,0.8945 -10.8057,0.4407 -22.0495,0.8814 -33.2104,0.8814 m -22.6821,-250.1929 v 78.0095 h 113.9395 c 21.544,0 39.0047,-17.4608 39.0047,-39.0048 0,-21.544 -17.4607,-39.0047 -39.0047,-39.0047 h -113.9395 m 0.2035,-142.4212 v 78.0095 h 113.9434 c 21.531,0 39.0047,-17.4607 39.0047,-39.0047 0,-21.544 -17.4737,-39.0048 -39.0047,-39.0048 h -113.9434 m 0.2022,-142.4211 v 78.0095 h 113.9356 c 21.544,0 39.0048,-17.4608 39.0048,-39.0048 0,-21.544 -17.4608,-39.0047 -39.0048,-39.0047 h -113.9356 m 0.2022,-142.4211 v 78.0095 h 113.9408 c 21.544,0 39.0048,-17.4608 39.0048,-39.0048 0,-21.531 -17.4608,-39.0047 -39.0048,-39.0047 h -113.9408" /><path
       id="path198"
       style="fill:#7aa5ff;fill-opacity:1;fill-rule:nonzero;stroke:none;stroke-width:0.129627"
       d="m 1460.9885,1408.9493 v -19.2626 c 0,-12.6256 10.2405,-22.8532 22.8662,-22.8532 h 13.896 c 0.091,1.037 0.1296,2.0999 0.1296,3.1629 0,20.831 -16.333,37.8511 -36.8918,38.9529" /><path
       id="path200"
       style="fill:#7aa5ff;fill-opacity:1;fill-rule:nonzero;stroke:none;stroke-width:0.129627"
       d="m 1461.9737,1551.2797 c 21.9976,-26.081 31.0845,-42.038 31.0845,-42.038 -1.6852,0.2074 -3.3703,0.3111 -5.0555,0.3111 -13.9478,0.013 -26.8587,-7.2851 -27.0142,-23.1644 v -12.9108 c 20.4681,1.2055 36.6844,18.1737 36.6844,38.9399 0,20.4292 -15.6978,37.19 -35.6992,38.8622" /><path
       id="path202"
       style="fill:#b2c9ff;fill-opacity:1;fill-rule:nonzero;stroke:none;stroke-width:0.129627"
       d="m 1344.529,1693.8434 h -30.5025 c 8.5593,-10.8239 18.6365,-21.6218 30.5025,-32.1475 v 32.1475" /><path
       id="path204"
       style="fill:#7aa5ff;fill-opacity:1;fill-rule:nonzero;stroke:none;stroke-width:0.129627"
       d="M 1458.4737,1693.8434 H 1344.529 v -32.1475 c 3.8059,-3.3703 7.7997,-6.7276 11.9815,-10.0331 15.6939,-12.4183 29.809,-24.4217 42.4515,-35.8289 h 59.5117 c 21.5311,0 39.0048,17.4607 39.0048,39.0047 0,21.5311 -17.4737,39.0048 -39.0048,39.0048" /><path
       id="path206"
       style="fill:#b2c9ff;fill-opacity:1;fill-rule:nonzero;stroke:none;stroke-width:0.129627"
       d="m 1344.3255,1836.2516 h -77.5311 v -3.1629 c 0,0 -3.5622,-32.329 11.4499,-74.8466 h 66.0812 v 78.0095" /><path
       id="path208"
       style="fill:#7aa5ff;fill-opacity:1;fill-rule:nonzero;stroke:none;stroke-width:0.129627"
       d="m 1458.2663,1836.2516 h -113.9408 v -78.0095 h 113.9408 c 21.544,0 39.0048,17.4737 39.0048,39.0047 0,21.544 -17.4608,39.0048 -39.0048,39.0048" /><path
       id="path210"
       style="fill:#b2c9ff;fill-opacity:1;fill-rule:nonzero;stroke:none;stroke-width:0.129627"
       d="m 1344.1233,1978.6727 h -77.3276 v -78.0095 h 77.3289 v 78.0095" /><path
       id="path212"
       style="fill:#7aa5ff;fill-opacity:1;fill-rule:nonzero;stroke:none;stroke-width:0.129627"
       d="m 1458.0589,1978.6727 h -113.9356 v -78.0095 h 113.9356 c 21.544,0 39.0048,17.4607 39.0048,39.0047 0,21.544 -17.4608,39.0048 -39.0048,39.0048" /><path
       id="path214"
       style="fill:#b2c9ff;fill-opacity:1;fill-rule:nonzero;stroke:none;stroke-width:0.129627"
       d="m 1266.7957,2121.0938 h 77.125 v -78.0096 h -77.125 z" /><path
       id="path216"
       style="fill:#7aa5ff;fill-opacity:1;fill-rule:nonzero;stroke:none;stroke-width:0.129627"
       d="m 1457.8645,2121.0938 h -113.9434 v -78.0095 h 113.9434 c 21.531,0 39.0047,17.4608 39.0047,39.0048 0,21.544 -17.4737,39.0047 -39.0047,39.0047" /><path
       id="path218"
       style="fill:#b2c9ff;fill-opacity:1;fill-rule:nonzero;stroke:none;stroke-width:0.129627"
       d="m 1266.7957,2263.515 h 76.9214 v -78.0097 h -76.9214 z" /><path
       id="path220"
       style="fill:#7aa5ff;fill-opacity:1;fill-rule:nonzero;stroke:none;stroke-width:0.129627"
       d="m 1457.6571,2263.515 h -113.9395 v -78.0095 h 113.9395 c 21.544,0 39.0047,17.4607 39.0047,39.0047 0,21.544 -17.4607,39.0048 -39.0047,39.0048" /><path
       id="path222"
       style="fill:#f85c3d;fill-opacity:1;fill-rule:nonzero;stroke:none;stroke-width:0.129627"
       d="m 1947.6858,1681.2955 c -54.0803,-49.1545 -157.9893,-92.0481 -148.5265,-179.7407 -77.1151,0 -183.1888,0 -260.2909,0 9.5016,87.6148 -94.6148,130.7288 -148.5396,179.7407 -53.7601,41.8047 -85.2051,106.0867 -85.2051,174.1927 v 529.3317 c 0,29.1919 23.6609,52.8489 52.849,52.8489 67.9258,-1.5945 294.2674,1.1536 358.0568,0 h 264.0112 c 29.192,0 52.8489,-23.657 52.8489,-52.8489 v -529.3317 c 0,-68.106 -31.4475,-132.388 -85.2038,-174.1927" /><g
       id="g224"
       transform="matrix(0.12962695,0,0,-0.12962695,92.659367,2712.9964)"><g
         clip-path="url(#clipPath230)"
         id="g226"><path
           id="path232"
           style="fill:#df4930;fill-opacity:1;fill-rule:nonzero;stroke:none"
           d="M 15260,6700.8 9180.48,7044.2 V 1842.1 h 5972.22 l 107.3,4858.7" /></g></g><path
       id="path234"
       style="fill:#ffffff;fill-opacity:1;fill-rule:nonzero;stroke:none;stroke-width:0.129627"
       d="m 2032.8896,2192.8164 h -727.7659 v -326.3099 h 727.7659 v 326.3099" /><path
       id="path236"
       style="fill:#a4c4ff;fill-opacity:1;fill-rule:nonzero;stroke:none;stroke-width:0.129627"
       d="m 1946.584,1968.7433 h -535.0741 v -43.7102 h 535.0741 v 43.7102" /><path
       id="path238"
       style="fill:#a4c4ff;fill-opacity:1;fill-rule:nonzero;stroke:none;stroke-width:0.129627"
       d="m 1946.584,2038.2363 h -535.0741 v -43.7102 h 535.0741 v 43.7102" /><path
       id="path240"
       style="fill:#a4c4ff;fill-opacity:1;fill-rule:nonzero;stroke:none;stroke-width:0.129627"
       d="m 1804.0851,2107.7293 h -392.5752 v -43.7102 h 392.5752 v 43.7102" /><path
       id="path242"
       style="fill:#3875ff;fill-opacity:1;fill-rule:nonzero;stroke:none;stroke-width:0.129627"
       d="m 1946.584,2062.8006 h -48.1953 v -48.1824 h -46.1213 v 48.1824 h -48.1823 v 46.1342 h 48.1823 v 48.1824 h 46.1213 v -48.1824 h 48.1953 v -46.1342" /><path
       id="path244"
       style="fill:#38385c;fill-opacity:1;fill-rule:nonzero;stroke:none;stroke-width:0.129627"
       d="m 1803.8647,1501.5548 h -270.0129 c -20.1959,0 -36.5678,-16.3719 -36.5678,-36.5678 v -77.5817 c 0,-20.1959 16.3719,-36.5678 36.5678,-36.5678 h 270.0129 c 20.1959,0 36.5678,16.3719 36.5678,36.5678 -4.3425,33.8715 18.0311,112.9958 -36.5678,114.1495" /><g
       id="g246"
       transform="matrix(0.12962695,0,0,-0.12962695,92.659367,2712.9964)"><g
         clip-path="url(#clipPath252)"
         id="g248"><path
           id="path254"
           style="fill:#1a1a35;fill-opacity:1;fill-rule:nonzero;stroke:none"
           d="m 13617.1,9253.4 h -2891.6 v 424.9 h 2891.6 v -424.9" /></g></g><g
       transform="matrix(0.18083348,0,0,-0.18083348,92.659367,2712.9964)"
       id="g256"><path
         id="path258"
         style="fill:#a4c4ff;fill-opacity:1;fill-rule:nonzero;stroke:none"
         d="m 13982.7,11894.4 h 1760.4 c 252.8,0 459.7,-206.9 459.7,-459.7 -0.1,-437 97.2,-1030.3 -539.1,-1003 v -307.3 c 0,-98.3 -117.2,-149.36 -189.2,-82.3 l -418.1,389.6 h -1073.7 c -252.8,0 -459.6,206.9 -459.6,459.7 3.4,384.7 -98.7,982.6 459.6,1003" /></g><g
       transform="matrix(0.15809432,0,0,-0.15809432,92.659367,2712.9964)"
       id="g260"><path
         id="path262"
         style="fill:#ffffff;fill-opacity:1;fill-rule:nonzero;stroke:none"
         d="m 16020.8,12782.4 c 3.2,-183.5 276.1,-183.4 279.2,0 -3.2,183.4 -276.1,183.4 -279.2,0" /></g><g
       transform="matrix(0.16611046,0,0,-0.16611046,92.659367,2712.9964)"
       id="g264"><path
         id="path266"
         style="fill:#ffffff;fill-opacity:1;fill-rule:nonzero;stroke:none"
         d="m 16034.4,12165.5 c 2.9,-174.6 262.6,-174.6 265.6,0 -3,174.6 -262.7,174.5 -265.6,0" /></g><g
       transform="matrix(0.17412918,0,0,-0.17412918,92.659367,2712.9964)"
       id="g268"><path
         id="path270"
         style="fill:#ffffff;fill-opacity:1;fill-rule:nonzero;stroke:none"
         d="m 16046.6,11605.3 c 2.8,-166.6 250.6,-166.5 253.4,0 -2.8,166.6 -250.6,166.5 -253.4,0" /></g><g
       transform="matrix(0.18208179,0,0,-0.18208179,92.659367,2712.9964)"
       id="g272"><path
         id="path274"
         style="fill:#cbdefe;fill-opacity:1;fill-rule:nonzero;stroke:none"
         d="m 16300,1512.11 v 0 l -807,19.15 69.6,188.3 455,279.64 v 106.79 h -204.3 l -58.1,1479.71 c -1386.9,415.69 -721.6,1874.76 -571.3,2746.43 0,0 -160.2,-132.42 -367.5,-132.42 -59.8,0 -123.5,11.03 -188.5,39.44 -254.7,111.42 -796.7,1092.33 -925.6,1330.87 l 19.5,0.21 251.7,-384.3 c -0.1,0.05 0,-0.05 0,0 l 388.2,-592.75 c 97.5,-153.13 258.2,-226.88 427.5,-226.88 3.1,0 6.1,0.07 9.2,0.07 10.9,-0.57 21.7,-0.93 32.2,-0.93 118.3,0 211.1,37.66 291.8,96.97 102,62.15 192.3,153.91 256,273.73 -46.5,-221.48 -369.8,-1782.78 -348.2,-2246.95 22.9,-492.29 854.3,-829.45 854.3,-829.45 l 57.6,2708.05 H 16300 V 3488.24 l -5.5,-2.42 5.5,-5.7 V 1512.11 m -1504.6,5674.56 v 0 c 0,0 620.3,1343.11 655.1,1384.83 34.7,41.73 591.6,284.91 591.6,284.91 0,0 -204.6,22.11 -243.4,123.18 -38.8,101.06 70,877.99 70,877.99 l 431.3,25.26 V 8759.99 l -99,-1.44 c 0,0 -93.6,-31.1 -209.9,-78.8 -7.3,-2.52 -438.1,-152.6 -513.2,-300.17 l -682.5,-1192.91" /></g><g
       transform="matrix(0.20526168,0,0,-0.20526168,92.659367,2712.9964)"
       id="g276"><path
         id="path278"
         style="fill:#cbdefe;fill-opacity:1;fill-rule:nonzero;stroke:none"
         d="m 15890.8,1372.42 c 0,0 -88,97.12 -105.6,121.38 -17.6,24.24 157.1,337.92 157.1,337.92 l -93.3,85 -173.8,-85 -1216,1255.39 v 7.21 l 222.5,96.24 c 8.2,-10.93 16.9,-21.54 25.9,-31.89 l 1065.3,-1194.65 261.2,178.72 265.9,-288.16 -409.2,-482.16" /></g><g
       transform="matrix(0.18208179,0,0,-0.18208179,92.659367,2712.9964)"
       id="g280"><path
         id="path282"
         style="fill:#bcd4fe;fill-opacity:1;fill-rule:nonzero;stroke:none"
         d="m 16300,3480.12 -5.5,5.7 5.5,2.42 v -8.12" /></g><g
       transform="matrix(0.18421286,0,0,-0.18421286,92.659367,2712.9964)"
       id="g284"><path
         id="path286"
         style="fill:#ffb6a6;fill-opacity:1;fill-rule:nonzero;stroke:none"
         d="m 15912.1,2281.55 57.7,-490.05 c 0,0 104.4,-43.77 215.1,-42.71 110.6,1.12 115.1,35.47 115.1,35.47 l -13.9,504.18 -374,-6.89" /></g><g
       id="g288"
       transform="matrix(0.12962695,0,0,-0.12962695,92.659367,2712.9964)"><g
         clip-path="url(#clipPath294)"
         id="g290"><g
           transform="scale(1.4211)"
           id="g296"><path
             id="path298"
             style="fill:#ff8370;fill-opacity:1;fill-rule:nonzero;stroke:none"
             d="m 16400.6,2018.64 c 0,0 -267.2,-60.52 -536.4,70.72 l -6.7,229.68 h 514.9 l 28.2,-300.4" /></g></g></g><g
       transform="matrix(0.18507358,0,0,-0.18507358,92.659367,2712.9964)"
       id="g300"><path
         id="path302"
         style="fill:#38385c;fill-opacity:1;fill-rule:nonzero;stroke:none"
         d="m 16224.2,1775.96 c 0,0 -286.7,-89.58 -334.5,101.07 l -388.8,-189.46 c -64.1,-31.24 -102.1,-99.39 -95,-170.41 l 787.5,-10.65 c 106.6,-2.73 34,207.11 30.8,269.45" /></g><g
       transform="matrix(0.20587741,0,0,-0.20587741,92.659367,2712.9964)"
       id="g304"><path
         id="path306"
         style="fill:#ffb6a6;fill-opacity:1;fill-rule:nonzero;stroke:none"
         d="m 15738,2142.32 308.3,-316.08 c 0,0 98,25.95 175.8,87.08 77.9,61.14 62.3,87.96 62.3,87.96 l -284.9,349.95 -261.5,-208.91" /></g><g
       id="g308"
       transform="matrix(0.12962695,0,0,-0.12962695,92.659367,2712.9964)"><g
         clip-path="url(#clipPath314)"
         id="g310"><g
           transform="scale(1.58448)"
           id="g316"><path
             id="path318"
             style="fill:#ff8370;fill-opacity:1;fill-rule:nonzero;stroke:none"
             d="m 16300,2158.68 c 0,0 -156.8,-189.14 -419.9,-243.04 l -130.4,159.61 365.9,281.54 184.4,-198.11" /></g></g></g><g
       transform="matrix(0.20825477,0,0,-0.20825477,92.659367,2712.9964)"
       id="g320"><path
         id="path322"
         style="fill:#38385c;fill-opacity:1;fill-rule:nonzero;stroke:none"
         d="m 16098.6,1978.44 c 0,0 -153.4,-218.48 -290.5,-110.05 L 15637,1524.24 c -28.2,-56.77 -18,-125.36 25.4,-171.55 l 560.5,419.28 c 77.1,54.59 -88.8,165.2 -124.3,206.47" /></g><g
       transform="matrix(0.18623374,0,0,-0.18623374,92.659367,2712.9964)"
       id="g324"><path
         id="path326"
         style="fill:#ffb6a6;fill-opacity:1;fill-rule:nonzero;stroke:none"
         d="m 15849.2,8486.3 -33.5,275.96 c -131,-9.19 -289.9,-15.09 -286.6,159.67 l 66.7,646.81 668.3,-0.16 c -16.4,-269.9 4.9,-812.97 35.9,-1082.28 h -450.8" /></g><g
       id="g328"
       transform="matrix(0.12962695,0,0,-0.12962695,92.659367,2712.9964)"><g
         clip-path="url(#clipPath334)"
         id="g330"><g
           transform="scale(1.41124)"
           id="g336"><path
             id="path338"
             style="fill:#ff8370;fill-opacity:1;fill-rule:nonzero;stroke:none"
             d="m 16100.9,8920.26 c 0,0 135.3,26.75 186.8,172.05 0,0 12.3,-262.54 -198.3,-315.88 l 11.5,143.83" /></g><g
           transform="scale(1.42601)"
           id="g340"><path
             id="path342"
             style="fill:#ff8370;fill-opacity:1;fill-rule:nonzero;stroke:none"
             d="m 16300,9512.52 c 0,0 -425.5,-116.2 -652.2,-89.39 l 20.5,274.13 631.7,-89.39 v -95.35" /></g><g
           transform="scale(1.3893)"
           id="g344"><path
             id="path346"
             style="fill:#ffffff;fill-opacity:1;fill-rule:nonzero;stroke:none"
             d="m 16131.8,9233.38 168.2,48.15 c 0,0 -80.3,-156.47 -168.2,-48.15" /></g></g></g><g
       transform="matrix(0.19065532,0,0,-0.19065532,92.659367,2712.9964)"
       id="g348"><path
         id="path350"
         style="fill:#38385c;fill-opacity:1;fill-rule:nonzero;stroke:none"
         d="m 15750.8,9280.82 c 0,0 -200.1,61.26 -516.7,65.97 -316.7,4.7 -211.9,280.08 -211.9,280.08 0,0 728.6,202.27 879.7,0 151.1,-202.27 39,-251.01 39,-251.01 359.1,9.9 -34.1,-499.75 -61.6,-536.2 l -103.9,187.47 c 0,0 61.1,-4.26 71,19.92 10,24.18 30,129.42 5.8,137.96 -24.2,8.54 -105.3,-41.25 -105.3,-41.25 l 3.9,137.06" /></g><g
       transform="matrix(0.19425635,0,0,-0.19425635,92.659367,2712.9964)"
       id="g352"><path
         id="path354"
         style="fill:#f85c3d;fill-opacity:1;fill-rule:nonzero;stroke:none"
         d="m 15185.7,8209.66 c 0,0 -537.8,-178.73 -605,-329.85 -67.1,-151.11 148.1,-1911.08 148.1,-1911.08 H 16136 c 0,0 159.9,1631.19 161.1,1755.24 2.9,317.54 -676.5,492 -676.5,492 l -434.9,-6.31" /></g><g
       transform="matrix(0.18618708,0,0,-0.18618708,92.659367,2712.9964)"
       id="g356"><path
         id="path358"
         style="fill:#38385c;fill-opacity:1;fill-rule:nonzero;stroke:none"
         d="m 15367.1,6227.39 259.7,-4114.3 h 673.2 v 4114.3 h -932.9" /></g><g
       transform="matrix(0.20445929,0,0,-0.20445929,92.659367,2712.9964)"
       id="g360"><path
         id="path362"
         style="fill:#38385c;fill-opacity:1;fill-rule:nonzero;stroke:none"
         d="m 15330.7,5670.87 120.6,-325.05 c 147.6,-299.37 -22,-1360.24 -20.2,-1687.9 l 868.9,-1367.91 -465.1,-318.27 -1069.5,1199.33 c -95.9,110.13 -148.8,251.26 -148.8,397.33 v 2102.47 h 714.1" /></g><g
       transform="matrix(0.18618708,0,0,-0.18618708,92.659367,2712.9964)"
       id="g364"><path
         id="path366"
         style="fill:#1a1a35;fill-opacity:1;fill-rule:nonzero;stroke:none"
         d="m 16300,3386.27 c 0,0 -249,264.84 -249,466.18 0,89.4 -56.6,1485.8 -56.6,1485.8 0,0 -167.7,-1416.94 -160.9,-1583.68 6.9,-166.68 466.5,-781.37 466.5,-781.37 v 413.07" /></g><g
       transform="matrix(0.18328991,0,0,-0.18328991,92.659367,2712.9964)"
       id="g368"><path
         id="path370"
         style="fill:#ffffff;fill-opacity:1;fill-rule:nonzero;stroke:none"
         d="m 16093.4,8707.55 206.6,-3.7 c -60,-81.15 -124,-257.81 -254.5,-163.38 l -109.1,102.46 157,64.62" /></g><g
       transform="matrix(0.18747687,0,0,-0.18747687,92.659367,2712.9964)"
       id="g372"><path
         id="path374"
         style="fill:#ffffff;fill-opacity:1;fill-rule:nonzero;stroke:none"
         d="m 15930.7,8510.12 c 168.3,-257.13 143,-170.77 369.3,-32.02 l -114.8,38.48 -254.5,-6.46" /></g><g
       transform="matrix(0.18511636,0,0,-0.18511636,92.659367,2712.9964)"
       id="g376"><path
         id="path378"
         style="fill:#38385c;fill-opacity:1;fill-rule:nonzero;stroke:none"
         d="m 16168.6,8475.87 c 65.4,24.34 43.9,137.44 25.7,145.75 0,0 -64.5,42.46 -105.1,-4.39 -1.2,3.72 -51.4,-113.39 0.4,-147.64 -26.9,-227.12 -181,-1525.94 -179.1,-1556.54 2.1,-33.54 140.8,-368.68 140.8,-368.68 0,0 237.3,286.26 243.2,336.54 5.5,46.42 -108.2,1385.47 -125.9,1594.96" /></g><g
       transform="matrix(0.17863242,0,0,-0.17863242,92.659367,2712.9964)"
       id="g380"><path
         id="path382"
         style="fill:#ffffff;fill-opacity:1;fill-rule:nonzero;stroke:none"
         d="m 15776.8,8541.41 -695.7,-1215.95 -894.6,995.03 -409.4,-283.9 861.9,-1316.07 c 93.9,-143.32 253.8,-229.75 425.2,-229.75 297.2,-25.98 445,166.76 611.2,375.46 -47.4,-225.76 -377,-1817.21 -355,-2290.34 23.4,-501.8 870.9,-845.47 870.9,-845.47 l 108.7,5116.99 c 0,0 -446,-154.3 -523.2,-306" /></g><g
       id="g384"
       transform="matrix(0.12962695,0,0,-0.12962695,92.659367,2712.9964)"><g
         clip-path="url(#clipPath390)"
         id="g386"><g
           transform="scale(1.37525)"
           id="g392"><path
             id="path394"
             style="fill:#f1f6fe;fill-opacity:1;fill-rule:nonzero;stroke:none"
             d="m 16294.5,7047.36 c -85.1,41.31 -283,136.71 -302.3,140.85 -24.5,5.24 -148.9,107.82 -148.9,107.82 l 293.3,109.67 163.4,-99.45 -5.5,-258.89" /></g></g></g><g
       transform="matrix(0.17178812,0,0,-0.17178812,92.659367,2712.9964)"
       id="g396"><path
         id="path398"
         style="fill:#d7e6fe;fill-opacity:1;fill-rule:nonzero;stroke:none"
         d="m 15675.5,6747.81 c -179.5,0 -349.8,78.17 -453.2,240.48 l -411.5,628.27 c 0.1,-0.06 0,0.05 0,-0.01 l 411.5,-628.26 c 97.7,-149.03 263.9,-238.9 442.1,-238.9 7,-0.6 13.9,-1.13 20.8,-1.51 -3.3,0 -6.4,-0.07 -9.7,-0.07 m 353.2,101.86 c 100.7,74.03 183.5,179.97 271.3,290.14 v 0 c -67.5,-127 -163.3,-224.26 -271.3,-290.14" /></g><g
       transform="matrix(0.17315568,0,0,-0.17315568,92.659367,2712.9964)"
       id="g400"><path
         id="path402"
         style="fill:#f1f6fe;fill-opacity:1;fill-rule:nonzero;stroke:none"
         d="m 15561.3,6694.58 c -6.8,0.37 -13.7,0.9 -20.6,1.5 -176.8,0 -341.8,89.15 -438.6,237.01 l -408.3,623.3 c 393.6,-371.09 655.5,-535.57 855.6,-535.57 311.2,0 473.4,397.45 750.6,1032.18 l -128.8,-969.59 v 0 0 c -87,-109.3 -169.2,-214.4 -269.2,-287.84 -106.6,-64.98 -225.4,-99.2 -340.7,-100.99" /></g><g
       transform="matrix(0.20477429,0,0,-0.20477429,92.659367,2712.9964)"
       id="g404"><path
         id="path406"
         style="fill:#ffffff;fill-opacity:1;fill-rule:nonzero;stroke:none"
         d="m 14961.2,7770.52 c 0,0 109.6,-4016.83 279.9,-4224.14 170.3,-207.38 866.4,-576.37 962.7,-484.45 96.2,91.98 -414.7,2757.76 -414.7,3031.79 -33.2,1125.78 214,1384.59 -827.9,1676.8" /></g><g
       transform="matrix(0.19970458,0,0,-0.19970458,92.659367,2712.9964)"
       id="g408"><path
         id="path410"
         style="fill:#e3eefe;fill-opacity:1;fill-rule:nonzero;stroke:none"
         d="m 16300,5473.41 c -19.6,120.14 -37.6,232.43 -53.2,332.46 v 0 l 53.2,-332.46" /></g><g
       transform="matrix(0.19970717,0,0,-0.19970717,92.659367,2712.9964)"
       id="g412"><path
         id="path414"
         style="fill:#f1f6fe;fill-opacity:1;fill-rule:nonzero;stroke:none"
         d="m 16171.7,5455.7 c -361.9,0 -614.5,408.35 -759.8,577.63 0,0 163.4,-78.15 414.3,-198.04 100,-47.84 187.1,-62.18 255.6,-62.18 103.1,0 164.3,32.45 164.8,32.71 15.6,-100.02 33.7,-212.31 53.3,-332.46 l 0.1,-0.71 c -44.2,-11.62 -87,-16.95 -128.3,-16.95" /></g><g
       transform="matrix(0.18840499,0,0,-0.18840499,92.659367,2712.9964)"
       id="g416"><path
         id="path418"
         style="fill:#eda59e;fill-opacity:1;fill-rule:nonzero;stroke:none"
         d="m 16300,7275.36 -0.1,1.31 v 0 c 0,-0.48 0.1,-0.83 0.1,-1.31" /></g><g
       transform="matrix(0.19523115,0,0,-0.19523115,92.659367,2712.9964)"
       id="g420"><path
         id="path422"
         style="fill:#f1f6fe;fill-opacity:1;fill-rule:nonzero;stroke:none"
         d="m 16300,6701.96 -562.6,127.68 -7.3,191.33 c 0,0.46 -0.1,0.8 -0.1,1.26 l 413.8,-107.29 c -27,428.89 156.2,600.65 156.2,600.65 -80.6,-350.6 0,-813.63 0,-813.63" /></g><g
       transform="matrix(0.20297766,0,0,-0.20297766,92.659367,2712.9964)"
       id="g424"><path
         id="path426"
         style="fill:#ffffff;fill-opacity:1;fill-rule:nonzero;stroke:none"
         d="m 15869.1,7440.09 379.7,-1144.44 c 51.2,-154.04 18.8,-323.53 -85.4,-447.93 -137.1,-163.68 -367.8,-213.75 -560.5,-121.66 l -1430.6,683.75 75,377.79 1379.3,-339.01 c 0,0 -129,742.03 242.5,991.5" /></g><g
       transform="matrix(0.15599955,0,0,-0.15599955,92.659367,2712.9964)"
       id="g428"><path
         id="path430"
         style="fill:#38385c;fill-opacity:1;fill-rule:nonzero;stroke:none"
         d="m 16249.7,8838.56 -1042,-11.58 c -87.3,-77.85 -948.6,1317.12 -999.6,1345.82 -19.5,28.2 0.3,66.7 34.6,67.1 l 1063.5,11.8 c 24,0.3 46.5,-11.3 60.2,-31 l 915.5,-1319.84 c 18.1,-26.15 -0.3,-61.94 -32.2,-62.3" /></g><g
       transform="matrix(0.15463458,0,0,-0.15463458,92.659367,2712.9964)"
       id="g432"><path
         id="path434"
         style="fill:#d1daf7;fill-opacity:1;fill-rule:nonzero;stroke:none"
         d="m 15455.9,10265.6 844.1,-1220.12 -970.6,-13.07 -834.6,1212.69 961.1,20.5" /></g><g
       id="g436"
       transform="matrix(0.12962695,0,0,-0.12962695,92.659367,2712.9964)"><g
         clip-path="url(#clipPath442)"
         id="g438"><g
           transform="scale(1.19292)"
           id="g444"><path
             id="path446"
             style="fill:#dae4fb;fill-opacity:1;fill-rule:nonzero;stroke:none"
             d="m 15329.4,9032.41 -233.2,338.88 v 0 0 0 c 345,279.12 164.2,756.51 104.7,888.81 l 255,5.5 844.1,-1220.12 -970.6,-13.07" /></g></g></g><g
       transform="matrix(0.15453477,0,0,-0.15453477,92.659367,2712.9964)"
       id="g448"><path
         id="path450"
         style="fill:#ffb6a6;fill-opacity:1;fill-rule:nonzero;stroke:none"
         d="m 16300,9549.54 c 0,0 -210.1,199.59 -245.9,210.33 -35.8,10.74 -366.9,64.44 -368.7,46.54 57.6,-163.47 219.1,-189.46 338.6,-227.09 0,0 107.2,-154.63 103.6,-149.35 -3.7,5.28 172.4,119.57 172.4,119.57" /></g><g
       transform="matrix(0.17549804,0,0,-0.17549804,92.659367,2712.9964)"
       id="g452"><path
         id="path454"
         style="fill:#38385c;fill-opacity:1;fill-rule:nonzero;stroke:none"
         d="m 16261,8254.72 c -26.9,11.84 -58.3,-0.34 -70.1,-27.21 -3.8,-10.54 -421.1,-951.82 -423.3,-962.53 l -0.2,0.15 c -69.5,-280.61 -91.2,-277.43 92.5,-47.28 v 0 c 12.9,13.74 419,951.2 428.3,966.8 11.8,26.86 -0.4,58.23 -27.2,70.07" /></g><g
       transform="matrix(0.17728819,0,0,-0.17728819,92.659367,2712.9964)"
       id="g456"><path
         id="path458"
         style="fill:#ffb6a6;fill-opacity:1;fill-rule:nonzero;stroke:none"
         d="m 16300,7711.9 c 0,0 -197.5,125.35 -238.7,127.63 -41.1,2.29 -347.6,-63.17 -345.3,-127.63 2.3,-64.46 162.4,-380.05 215,-375.48 52.6,4.58 303.1,43.65 303.1,43.65 l 65.9,331.83" /></g><g
       id="g460"
       transform="matrix(0.12962695,0,0,-0.12962695,92.659367,2712.9964)"><g
         clip-path="url(#clipPath466)"
         id="g462"><g
           transform="scale(1.36773)"
           id="g468"><path
             id="path470"
             style="fill:#ff8370;fill-opacity:1;fill-rule:nonzero;stroke:none"
             d="m 16322.7,7598.87 c 0,0 -326.6,-242.38 -481.8,-204.81 l 68.4,-86.4 422.7,39.43 -9.3,251.78" /></g></g></g><g
       transform="matrix(0.18435674,0,0,-0.18435674,92.659367,2712.9964)"
       id="g472"><path
         id="path474"
         style="fill:#38385c;fill-opacity:1;fill-rule:nonzero;stroke:none"
         d="m 16040.5,9390.4 -4.1,13.46 259.5,78.03 4.1,-13.47 -259.5,-78.02" /></g><g
       transform="matrix(0.17959944,0,0,-0.17959944,92.659367,2712.9964)"
       id="g476"><path
         id="path478"
         style="fill:#38385c;fill-opacity:1;fill-rule:nonzero;stroke:none"
         d="m 16175.9,9790.23 c -105.1,0.31 -105.1,-262.25 0,-261.91 105.2,-0.31 105.2,262.26 0,261.91 z m 0,-276.34 c -124,-0.15 -124,290.95 0,290.77 124.1,0.15 124.1,-290.95 0,-290.77" /></g><g
       transform="matrix(0.18179532,0,0,-0.18179532,92.659367,2712.9964)"
       id="g480"><path
         id="path482"
         style="fill:#38385c;fill-opacity:1;fill-rule:nonzero;stroke:none"
         d="m 16177.5,9658.86 c -103.9,0.32 -103.9,-259.08 0,-258.74 103.9,-0.31 103.9,259.08 0,258.74 z m 0,-273 c -122.6,-0.15 -122.6,287.44 0,287.26 122.5,0.14 122.5,-287.43 0,-287.26" /></g><g
       transform="matrix(0.17947499,0,0,-0.17947499,92.659367,2712.9964)"
       id="g484"><path
         id="path486"
         style="fill:#38385c;fill-opacity:1;fill-rule:nonzero;stroke:none"
         d="m 16297.7,9654.97 -23.8,3.86 2.4,14.25 23.7,-3.85 -2.3,-14.26" /></g><g
       transform="matrix(0.2250272,0,0,-0.2250272,92.659367,2712.9964)"
       id="g488"><path
         id="path490"
         style="fill:#38385c;fill-opacity:1;fill-rule:nonzero;stroke:none"
         d="M 16300,1196.11 H 1057.59 v 54.78 H 16300 v -54.78" /></g><g
       transform="matrix(0.13893417,0,0,-0.13893417,92.659367,2712.9964)"
       id="g492"><path
         id="path494"
         style="fill:#a4c4ff;fill-opacity:1;fill-rule:nonzero;stroke:none"
         d="m 14056.8,13543.2 c -47.1,-2756.8 -4147.73,-2756.3 -4194.47,0.1 47.11,2756.7 4147.77,2756.3 4194.47,-0.1" /></g><path
       id="path496"
       style="fill:#e3eefd;fill-opacity:1;fill-rule:nonzero;stroke:none;stroke-width:0.129627"
       d="m 1892.1018,664.92948 -183.0851,183.0851 -72.9022,-72.90219 -53.1211,53.12112 72.9022,72.91516 -0.1945,0.19444 53.1212,53.12112 236.4006,-236.41363 -53.1211,-53.12112" /></g></svg>
